<?xml version="1.0" encoding="utf-8"?>
<!-- Generator: Adobe Illustrator 22.0.1, SVG Export Plug-In . SVG Version: 6.00 Build 0)  -->
<svg version="1.1" id="Layer_1" xmlns="http://www.w3.org/2000/svg" xmlns:xlink="http://www.w3.org/1999/xlink" x="0px" y="0px"
	 viewBox="0 0 456 456" style="enable-background:new 0 0 456 456;" xml:space="preserve">
<style type="text/css">
	.st0{fill:#DCDBDB;}
	.dash{fill:none;stroke:#FFFFFF;stroke-width:4;stroke-linecap:round;stroke-miterlimit:10;stroke-dasharray:12.0692,12.0692;}
	.st2{fill:none;}
	.st3{fill:#1895A4;}
	.st4{fill:#19B0BF;}
	.st5{fill:#DC4226;}
	.st6{fill:#F26328;}
	.st7{fill:#FFFFFF;}
	.st8{fill:#D1EBFA;}
	.st9{fill:#2D5972;}
	.st10{fill:#F99B1F;}
	.st11{fill:#A7DAE9;}
	.st12{fill:#90C4D6;}
	.st13{fill:#0F303F;}
	.st14{fill:#FFCE40;}
	.st15{fill:#45AAB6;}
	.st16{fill:#46C0CC;}
	.st17{fill:#DAF0FC;}
	.st18{fill:#A5AF3B;}
	.st19{fill:#294C5C;}
	.st20{fill:#8FCDE5;}
</style>
<g>
	<circle class="st0" cx="227.7" cy="228.1" r="180.6"/>
	<circle class="dash" cx="227.7" cy="228.1" r="180.6"/>
</g>
<g id="images_1_">
	<g>
		<path class="st2" d="M297.3,196.5c9.4,0,17.1-7.6,17.1-17.1c0-9.4-7.6-17.1-17.1-17.1c-9.4,0-17.1,7.6-17.1,17.1
			C280.2,188.9,287.8,196.5,297.3,196.5z"/>
		<path class="st3" d="M266.9,174.9c-0.9,0-1.6,0.7-1.6,1.6v6.6c0,0.9,0.7,1.6,1.6,1.6h3.9c0.3,1.4,0.7,2.7,1.1,4l-3.3,1.9
			c-0.8,0.5-1.1,1.5-0.6,2.2l3.3,5.7c0.5,0.8,1.5,1.1,2.3,0.6l3.4-2c0.9,1,1.9,2,3,2.9l-1.9,3.3c-0.5,0.8-0.2,1.8,0.6,2.2l5.7,3.3
			c0.8,0.5,1.8,0.2,2.2-0.6l2-3.4c1.3,0.4,2.7,0.8,4,1v3.8c0,0.9,0.7,1.6,1.6,1.6h6.6c0.9,0,1.6-0.7,1.6-1.6v-3.9
			c1.4-0.3,2.7-0.7,4-1.1l1.9,3.3c0.5,0.8,1.5,1.1,2.2,0.6l5.7-3.3c0.8-0.4,1.1-1.5,0.6-2.3l-2-3.4c1-0.9,2-1.9,2.9-3l3.3,1.9
			c0.8,0.5,1.8,0.2,2.2-0.6l3.3-5.7c0.5-0.8,0.2-1.8-0.6-2.2l-3.4-2c0.4-1.3,0.8-2.7,1-4h3.8c0.9,0,1.6-0.7,1.6-1.7v-6.6
			c0-0.9-0.7-1.6-1.6-1.6h-3.9c-0.3-1.4-0.7-2.7-1.1-4l3.3-1.9c0.8-0.5,1.1-1.5,0.6-2.3l-3.3-5.7c-0.5-0.8-1.5-1.1-2.3-0.6l-3.4,2
			c-0.9-1-1.9-2-3-2.9l1.9-3.3c0.5-0.8,0.2-1.8-0.6-2.3l-5.7-3.3c-0.8-0.4-1.8-0.2-2.2,0.6l-2,3.4c-1.3-0.4-2.7-0.8-4-1v-3.8
			c0-0.9-0.7-1.6-1.6-1.6h-6.6c-0.9,0-1.7,0.7-1.7,1.6v3.9c-1.4,0.3-2.7,0.7-4,1.1l-1.9-3.3c-0.5-0.8-1.5-1.1-2.3-0.6l-5.7,3.3
			c-0.8,0.4-1.1,1.5-0.6,2.2l2,3.4c-1,0.9-2,1.9-2.9,3L273,160c-0.8-0.5-1.8-0.2-2.3,0.6l-3.3,5.7c-0.4,0.8-0.2,1.8,0.6,2.2l3.4,2
			c-0.4,1.3-0.8,2.7-1,4h-3.5V174.9z M297.3,162.4c9.4,0,17.1,7.6,17.1,17.1c0,9.4-7.6,17.1-17.1,17.1c-9.4,0-17.1-7.6-17.1-17.1
			C280.2,170,287.8,162.4,297.3,162.4z"/>
	</g>
	<path class="st4" d="M266.9,174.9c-0.9,0-1.6,0.7-1.6,1.6v6.6c0,0.9,0.7,1.6,1.6,1.6h3.9c0.3,1.4,0.6,2.7,1.1,4l-3.2,1.9
		c-0.8,0.5-1,1.5-0.6,2.2l3.2,5.7c0.4,0.8,1.4,1.1,2.2,0.6l3.4-2c0.9,1,1.9,2,2.9,2.9l-1.9,3.3c-0.4,0.8-0.2,1.8,0.6,2.2l5.6,3.3
		c0.8,0.5,1.8,0.2,2.2-0.6l1.9-3.4c1.3,0.4,2.6,0.8,4,1v3.8c0,0.9,0.7,1.6,1.6,1.6h2.3v-14.9c-9-0.3-16.3-7.8-16.3-17.1
		c0-9.2,7.2-16.8,16.3-17.1v-14.9h-3c-0.9,0-1.6,0.7-1.6,1.6v3.9c-1.4,0.3-2.7,0.7-4,1.1l-1.9-3.3c-0.5-0.8-1.4-1.1-2.2-0.6
		l-5.6,3.3c-0.8,0.4-1,1.5-0.6,2.2l1.9,3.4c-1,0.9-2,1.9-2.9,3l-3.2-1.9c-0.8-0.5-1.8-0.2-2.2,0.6l-3.3,5.7
		c-0.4,0.8-0.2,1.8,0.6,2.2l3.4,2c-0.4,1.3-0.8,2.7-1,4h-3.6L266.9,174.9L266.9,174.9z"/>
	<g>
		<path class="st2" d="M314.6,178.9c0-9.3-7.5-16.8-16.8-16.8s-16.8,7.5-16.8,16.8s7.5,16.8,16.8,16.8S314.6,188.2,314.6,178.9z"/>
		<path class="st3" d="M318.3,178.9c0-11.3-9.2-20.5-20.5-20.5s-20.5,9.2-20.5,20.5s9.2,20.5,20.5,20.5
			C309.1,199.4,318.3,190.3,318.3,178.9z M280.9,178.9c0-9.3,7.5-16.8,16.8-16.8s16.8,7.5,16.8,16.8s-7.5,16.8-16.8,16.8
			S280.9,188.2,280.9,178.9z"/>
	</g>
	<path class="st4" d="M297.8,195.8c-0.2,0-0.4,0-0.6,0v3.7c0.2,0,0.4,0,0.6,0c11.3,0,20.4-9.2,20.4-20.5s-9.1-20.5-20.4-20.5
		c-0.2,0-0.4,0-0.6,0v3.7c0.2,0,0.4,0,0.6,0c9.3,0,16.8,7.5,16.8,16.8C314.6,188.2,307.1,195.8,297.8,195.8z"/>
	<g>
		<path class="st2" d="M330.3,150.2c2.6,0,4.7-2.1,4.7-4.7s-2.1-4.7-4.7-4.7s-4.7,2.1-4.7,4.7C325.5,148.1,327.7,150.2,330.3,150.2z
			"/>
		<path class="st5" d="M319.9,141.7c-0.2,0.5-0.8,0.9-1.3,0.9h-2.3c-0.5,0-1,0.4-1,1v3.6c0,0.5,0.4,1,1,1h2.3c0.5,0,1.1,0.4,1.3,0.9
			l0.4,1c0.2,0.5,0.1,1.2-0.3,1.6l-1.6,1.6c-0.4,0.4-0.4,1,0,1.4l2.5,2.5c0.4,0.4,1,0.4,1.4,0l1.6-1.6c0.4-0.4,1.1-0.5,1.6-0.3
			l1,0.4c0.5,0.2,0.9,0.8,0.9,1.3v2.3c0,0.5,0.4,1,1,1h3.6c0.5,0,1-0.4,1-1V157c0-0.5,0.4-1.1,0.9-1.3l1-0.4
			c0.5-0.2,1.2-0.1,1.6,0.3l1.6,1.6c0.4,0.4,1,0.4,1.4,0l2.5-2.5c0.4-0.4,0.4-1,0-1.4l-1.6-1.6c-0.4-0.4-0.5-1.1-0.3-1.6l0.4-1
			c0.2-0.5,0.8-0.9,1.3-0.9h2.3c0.5,0,1-0.4,1-1v-3.6c0-0.5-0.4-1-1-1H342c-0.5,0-1.1-0.4-1.3-0.9l-0.4-1.1
			c-0.2-0.5-0.1-1.2,0.3-1.6l1.6-1.6c0.4-0.4,0.4-1,0-1.4l-2.5-2.5c-0.4-0.4-1-0.4-1.4,0l-1.6,1.6c-0.4,0.4-1.1,0.5-1.6,0.3l-1-0.4
			c-0.5-0.2-0.9-0.7-0.9-1.3v-2.3c0-0.5-0.4-1-1-1h-3.6c-0.5,0-1,0.4-1,1v2.3c0,0.5-0.4,1.1-0.9,1.3l-1,0.4
			c-0.5,0.2-1.2,0.1-1.6-0.3l-1.6-1.6c-0.4-0.4-1-0.4-1.4,0l-2.5,2.5c-0.4,0.4-0.4,1,0,1.4l1.6,1.6c0.4,0.4,0.5,1.1,0.3,1.6
			L319.9,141.7z M330.3,140.7c2.6,0,4.7,2.1,4.7,4.7s-2.1,4.7-4.7,4.7s-4.7-2.1-4.7-4.7C325.5,142.8,327.7,140.7,330.3,140.7z"/>
	</g>
	<path class="st6" d="M320.1,141.7c-0.2,0.5-0.8,0.9-1.4,0.9h-2.5c-0.6,0-1,0.4-1,1v3.6c0,0.5,0.5,1,1,1h2.5c0.6,0,1.2,0.4,1.4,0.9
		l0.5,1c0.3,0.5,0.1,1.2-0.3,1.6l-1.7,1.6c-0.4,0.4-0.4,1,0,1.4l2.7,2.5c0.4,0.4,1.1,0.4,1.5,0l1.7-1.6c0.4-0.4,1.2-0.5,1.7-0.3
		l1.1,0.4c0.5,0.2,1,0.8,1,1.3v2.3c0,0.5,0.5,1,1,1h2V150h-0.1c-2.8,0-5-2.1-5-4.7s2.3-4.7,5-4.7h0.1v-10.3h-2c-0.6,0-1,0.4-1,1v2.3
		c0,0.5-0.4,1.1-1,1.3l-1.1,0.4c-0.5,0.2-1.3,0.1-1.7-0.3l-1.7-1.6c-0.4-0.4-1.1-0.4-1.5,0l-2.7,2.5c-0.4,0.4-0.4,1,0,1.4l1.7,1.6
		c0.4,0.4,0.5,1.1,0.3,1.6L320.1,141.7z"/>
	<polygon class="st7" points="246.5,170.4 227.3,189.6 227.3,269.4 300.3,269.4 300.3,170.4 	"/>
	<polygon class="st4" points="227.3,188.4 245.3,188.4 245.3,170.4 	"/>
	<polygon class="st8" points="227.3,207.4 245.3,189.4 227.3,189.4 	"/>
	<path class="st9" d="M233.3,248.4c0,6.6,5.4,12,12,12c6.4,0,11.6-5,12-11.2h-12.8v-12.8C238.2,236.9,233.3,242.1,233.3,248.4z"/>
	<path class="st10" d="M249.3,237.4v8h8C257.3,241,253.7,237.4,249.3,237.4z"/>
	<path class="st11" d="M257.3,213.1l-6-0.7c-0.2,0.7-0.6,1.3-1,1.9l3.5,5.1C255.5,217.8,256.8,215.6,257.3,213.1z"/>
	<path class="st10" d="M258.3,211.4v-0.2c0-6.7-4.8-12.2-11-12.8v7.1c2.3,0.5,4,2.6,4.3,5.1L258.3,211.4z"/>
	<path class="st4" d="M244.3,198.4c-3.3,0.3-6.2,2.1-8,4.7l5.3,3.3c0.7-0.8,1.6-1.4,2.7-1.6V198.4z"/>
	<path class="st9" d="M234.4,205.4c-0.7,1.5-1.1,3.3-1.1,5.1c0,6.6,5.1,11.9,11.3,11.9c2.1,0,4-0.6,5.7-1.6l-3.7-5.4
		c-0.6,0.3-1.3,0.5-2,0.5c-2.8,0-5.1-2.4-5.1-5.3c0-0.6,0.1-1.2,0.3-1.7L234.4,205.4z"/>
	<rect x="264.3" y="198.4" class="st4" width="30" height="3"/>
	<rect x="264.3" y="208.4" class="st11" width="30" height="3"/>
	<rect x="264.3" y="216.4" class="st11" width="30" height="3"/>
	<rect x="264.3" y="236.4" class="st4" width="20" height="3"/>
	<rect x="264.3" y="245.4" class="st11" width="30" height="3"/>
	<rect x="264.3" y="253.4" class="st11" width="30" height="3"/>
	<path class="st12" d="M137.3,137.4v112c31.4,0,57-25.1,57-56C194.3,162.6,168.7,137.4,137.3,137.4z"/>
	<path class="st11" d="M137.3,137.4c-31.4,0-57,25.1-57,56s25.6,56,57,56V137.4z"/>
	<path class="st2" d="M192,208.4c-0.8,0-1.7,0.4-1.7,0.6c0,0.3-1,0.7-1.4,0.8c-0.3,0.1-1,1.2-1.1,1.5s-1,0.2-1.3,0.4
		c-0.3,0.1-0.9,0.6-1,0.9c0,0.3-0.2,0.3-0.4-0.1c0,0,0,0-0.4,0.4c-0.5,0.5-0.5,0.5-0.5,0.5c-0.3,0.8-1.2,1.9-1.5,2s-0.4,1.6-0.4,2.2
		s0.2,1.4,0.5,1.7c0,0,0,0,0.1,0.5c0.1,1,0.1,1,0.1,1c-0.2,0.7,0.4,1.4,0.6,1.5c0.2,0.1,1.6-0.2,2.1-0.4c0.2,0,0.5-0.2,0.8-0.3
		c2.5-4.1,4.5-8.6,5.8-13.3L192,208.4z"/>
	<path class="st13" d="M95.8,158.1c0-0.1-0.3-0.2-0.5-0.2c-7,8.2-11.6,18.3-13,29.4c0.3,0.3,0.6,0.7,0.7,0.9c0.2,0.5,1,0.8,1.2,0.9
		s0.2-0.9,0.1-1.2c-0.1-0.3,0.2-0.4,0.2-0.2s0.8,1.1,1.1,1.5c0.3,0.3,0.6,2.5,0.8,2.9c0.3,0.5,2.8,1.4,3.6,1.6s1.8,1.1,2,1.3
		c0.2,0.3,1.2,0.4,1.5,0.5c0.2,0.1,0.8,0.8,1,1s0.4,0.6,0.4,0.7s1.4,0.6,1.8,1c0.3,0.4,0.9,0.3,1,0.1s0.4,0.7,0.5,1.1
		c0.1,0.3,0.2,1.1,0.1,1.2c-0.1,0.1-0.3,1.5-0.6,1.8c-0.2,0.3-0.8,2.3-0.6,2.7c0.1,0.4,0.8,1.2,1.1,1.4c0.3,0.1,0.2,0.6-0.1,0.6
		c-0.2,0-0.1,2,0.4,2.3s1,1.2,0.9,1.3c-0.1,0.2,1,1.2,1.4,1.5c0.4,0.4,1.2,2,1.4,2.6s0.1,1.5,0,1.7s0.2,0.7,0.2,0.9
		s-0.4,1.9-0.2,2.5c0.1,0.7-0.8,2.7-0.8,3.8c0,1,0.5,2.4,0.7,2.3s0.3,0.9-0.1,1.1c-0.3,0.1-0.7,0.9-0.5,1c0.2,0,0,0.9,0,1.2
		s0.3,2.5,0.4,3s0.8,1.8,1,2.3c0.2,0.4,0.3,1.3,0.4,1.4c0.1,0.1,0.1,0.3,0.2,0.3c0,0,0.6,0.2,0.8,0.4c0.2,0.1,1.4,0,1.8,0
		c0.4-0.1,0-0.4-0.1-0.6c-0.2-0.2-0.3-1.1-0.6-1.2c-0.2-0.1-0.3-1.3-0.1-1.6c0.2-0.3,0.9-0.7,1-0.9s0.1-1.3-0.1-1.4
		c-0.2-0.1,0.1-1.4-0.1-2.1c-0.1-0.6,1.1-1.2,1.2-1.7s1.5-1,1.8-1.3s0.6-1.7,0.4-2s0.5-0.6,0.8-0.6s0.6-0.2,0.7-0.2s0.5-0.6,0.7-0.8
		c0.2-0.1,0.6-1.7,0.9-1.9c0.3-0.3,0.6-1.2,0.6-1.4c0-0.3,0.5-1.1,0.7-1.3s1.5-0.8,1.7-0.9s0.6-2.1,0.7-2.8s0.5-1.7,0.5-1.9
		s0.4-0.4,0.5-0.5s0.4-1,0.6-1.2s0.9-1.1,0.9-1.3s0.1-0.7,0.2-1.1c0,0,0,0,0-0.5c0-0.8,0-0.8,0-0.8c-0.2-0.6-0.9-1.4-1.1-1.2
		s-1-0.5-1.4-0.7c-0.4-0.1-1.4-0.3-1.7-0.3s-1.1-0.7-1.5-0.8s-1.4-0.3-1.6-0.4c-0.2-0.1-0.4-1.6-1.3-2.1c-0.8-0.5-2.3-1.6-2.4-2
		c-0.2-0.4-1.7-1.3-2.2-1.5c-0.5-0.3-1.2-0.3-1.3-0.2c-0.1,0.1-0.7-0.8-1-1.1s-1.3-0.5-1.3-0.2c0,0.2-0.7,0.1-0.8-0.1
		s-0.6,0.1-0.9,0.2c-0.2,0.1-1,1.2-1.4,1.5s-0.8-0.3-1-0.4s-1.1,0.2-1.4,0.3c-0.2,0.2-0.8-1.2-0.7-1.9c0.1-0.6-0.6-1.9-1.2-2
		c-0.6,0-0.7-1.4-0.6-1.9s-1-0.8-1.3-0.8s-1,0.7-1.1,1s-2.7-0.5-2.4-2s1.5-3,1.8-3.2s1.9-0.3,2.3-0.1s0.7,0,0.8-0.1s1.4,0,1.8,0.2
		s1,1.7,1.4,1.9s0.6-1,0.6-1.3c0.1-0.3-0.2-1-0.3-1.2s0.7-2,1.3-2.3s1.3-1.3,1.2-1.5s0.5-0.3,0.6-0.4s0-1.6,0.2-1.9s1.4-1,1.8-1.2
		s0.6-1.1,0.5-1.2c-0.1-0.2,1-1.1,1.5-1.3c0.6-0.2,1.1,0.3,0.9,0.4c0.1-0.1,0.9-0.5,1.2-0.7c0.4-0.3,0-0.9-0.2-1.1s-0.1-1,0.2-1.1
		s0.6-0.8,0.5-0.9c-0.1-0.2,1.2,0.1,1.8-0.2c0.5-0.4,0.1,0.9-0.2,1.4c-0.4,0.5,0.3,1,0.5,0.9s0.5,0.3,0.5,0.4s0.6-0.1,0.9,0
		s0.5-0.4,0.6-0.7c0-0.3-0.8-0.8-0.9-1.2c-0.1-0.3-0.2-2.2-0.2-2.6s-0.6-1-0.7-0.9c-0.2,0.1-0.5-1-0.8-1.3c-0.3-0.2-0.3-0.8-0.3-1
		s-0.9-1.2-1.2-1.6c-0.2-0.5-0.6-0.4-0.6-0.2s-0.7,0.2-1,0.2s-0.5-1.1-0.5-1.4c0-0.4-1.2-0.5-1.4-0.8s-1-0.2-1.1-0.4s-0.8-0.4-1-0.3
		c-0.1,0.1-0.1,2.9-0.2,3.6c-0.1,0.8-0.8,1.4-1,1.4s-0.1,0.5,0.1,0.5c0.2-0.1-0.5,0.8-0.5,1.4c-0.1,0.6-0.7,0-0.8-0.5
		s-0.7-1.2-0.8-1s-0.5-0.2-0.7-0.1s-1.3-0.6-1.7-0.9c-0.4-0.2-0.7-1.6-0.9-1.7c-0.3-0.1,0-0.3,0-0.5s0.9-1,1.1-1.3
		c0.3-0.3,1.2-1.5,1.6-1.8s0.7-1,0.6-1.1s1.6-0.6,2.1-0.8s0.9-1.4,0.9-1.7c0.1-0.4-0.3-1-0.5-1.1s0.6-0.1,0.9,0s1.1-0.2,1.5-0.1
		c0.3,0.2,1,0.6,1.5,0.9c0,0,0,0-0.1,0.9c-0.2,1.5-0.2,1.5-0.2,1.5c-1.3,0.5-1.7,1.5-1.2,1.4c0.5,0,2.6,0.9,3.2,1.3
		c0.6,0.4,0.8-0.6,1-0.9s0.1-1.3,0-1.5s0.7-0.1,0.9,0.1s0.5-0.2,0.7-0.3s0.3-0.9,0.4-1.1c0.1-0.2-0.4-0.3-0.4-0.6
		c0-0.2-1-0.6-1.3-0.8c-0.3-0.1-0.4-0.8-0.2-0.9c0.1-0.1-0.1-0.9-0.3-1.2c-0.2-0.3-1.1-0.5-1.5-0.5c-0.3,0-0.7-0.8-0.9-0.9
		s-1.5-0.2-1.8-0.2c-0.3,0.1-0.9-0.9-1.4-0.6s-1.1-0.3-1.3-0.5c-0.2-0.1-1.5,1.2-1.5,2.1s0.5,1.8,0.7,1.8s0,0.9-0.3,1.1
		c-0.2,0.2-0.7-0.2-0.5-0.5c0.2-0.2-0.5-1.2-0.8-1.6c-0.2-0.3-0.8-0.5-1.3-0.7c-0.3,0.3-0.5,0.5-0.8,0.8c0.1,0.3,0.2,0.8,0.1,1.1
		C96.3,158.2,95.8,158.3,95.8,158.1z"/>
	<path class="st13" d="M104.2,148.6c0.3-0.3,1.7-0.7,2.1-0.9c0.3-0.2,1.1-0.9,1.4-0.9c0.3-0.1,0.7-0.7,0.7-0.8
		c-0.1-0.1,1-0.7,1.4-0.9s0.6-0.6,0.5-0.6s-2.3,1.1-4.4,2.1c-2.3,1.5-4.5,3.1-6.6,4.9c0.6,0,1.6-0.1,2-0.2c0.6-0.1,1.7-0.3,1.8-0.4
		s0.1-0.5-0.1-0.7h0.3C103.6,150.1,104,148.9,104.2,148.6z"/>
	<path class="st13" d="M136.2,179.7c-0.1-0.2-1.7-0.3-2.2-0.1s-3,0.4-3.5,0.7c-0.6,0.3-1.5,0-1.7-0.1c-0.3,0-0.9,0.8-1.3,0.9
		c-0.3,0.1-0.8,1.3-0.9,2.6c0,0,0,0-0.5,0.9c-0.3,0.6-0.3,0.6-0.3,0.6c-0.8,0.6-1.7,2.7-2,3.1s-0.5,3.4-0.5,4.4s0.9,3.2,1.1,3.7
		c0.2,0.6,1.8,1.9,2.3,2.2s2.2,0.3,2.7,0.3s1.2-0.5,1.4-1.1c0,0,0,0,0.8,0.1c0.4,0,0.4,0,0.4,0c0,0.4,1.2,0.8,1.5,1s1.1,0,1.3,0
		c0.2-0.1,0.5,2,0.3,2.6s0.4,2.7,0.6,3.3c0.2,0.6,0.9,2.4,1,3c0.1,0.6-0.4,2.7-0.5,3.4c-0.1,0.7,0.9,2.7,1.2,3.4
		c0.3,0.7,0.5,2.2,0.5,2.5s1.1,2.4,1.3,3.3c0.2,0.9,2.9,1.1,3.7,0.6c0.7-0.4,1.9-2.2,2.3-2.6c0.4-0.4,0.7-1.8,0.8-2.1
		s0.7-0.8,0.9-0.9s1-3.1,1.6-3.8c0.6-0.7,1.4-3.9,1.3-5c-0.1-1.2,0.4-3.4,0.6-3.9c0.2-0.5,1-1.5,1.2-1.7s1.8-2.5,2.3-3.3
		s1-2.6,0.9-3.1c-0.1-0.4-1.2-0.7-1.4-0.5s-1.2,0.4-1.5,0.4s-1.1-1.7-1.5-2.1c-0.5-0.4-0.9-2.4-1.1-2.7c-0.3-0.4-1-1.3-1.2-1.6
		c-0.2-0.2-0.3-1.3-0.3-1.6c-0.1-0.3,0.4,0.2,0.5,0.6s1.3,2.1,1.6,2.7c0.4,0.6,1.3,2.4,1.6,3c0.2,0.6,2.4,0.3,3.1-0.1
		c0.7-0.3,1.6-0.9,1.6-1.1s1.2-0.7,1.5-1s0.6-1.6,0.8-1.8s-0.2-1.5-0.4-1.8c-0.2-0.4-1.4-0.7-1.6-0.5c-0.2,0.1-0.7-0.8-0.9-1.2
		s-1-0.8-1.1-1.1c-0.1-0.2,0.2-0.6,0.4-0.7c0.1-0.1,1.7,1,2.2,1.6c0.4,0.6,1,1.6,1.1,1.8s1.3,0.3,1.6,0.1s0.6-0.2,0.7,0.1
		c0,0,0,0,0.4-0.1c1.4-0.2,1.4-0.2,1.4-0.2c0.6,0.7,0.8,1.3,0.8,1.5c0,0.1,0.4,0.7,0.7,0.8s0.5,1,0.5,1.2c0.1,0.2,0.9,1.6,1,2.1
		c0.2,0.6,0.8,1.7,1,2s0.3,1.2,0.3,1.4s0.5,0.7,0.8,0.7s0.9-2,1.1-2.7c0.1-0.7,0.6-1.3,0.8-1.3c0.1,0,0.3-0.4,0.3-0.6
		s0.8-0.1,0.9-0.3c0.1-0.2,0.3-1.5,0.6-1.7s1.3-0.9,1.6-1c0.4-0.1,1.2,0.7,1.5,1c0.2,0.4,0.4,1.3,0.3,1.4c-0.1,0.2,0.5,1,1,0.9
		c0.5,0,0.6,0.6,0.6,0.8s0.7,0.9,0.8,1.2s0.1,1.1,0,1.3s0,1.2,0.1,1.5s1.6,1.8,2.1,2.2c0.5,0.5,0.8-0.9,0.5-1.4
		c-0.3-0.4-1.2-1.4-1.5-1.7c-0.2-0.3-0.3-1.5-0.2-1.8s0.8,0.2,1.2,0.4c0.3,0.2,0.7,0.8,0.7,1s2-0.9,2.1-2.1s0.7-2.6,0.8-2.9
		s-0.2-0.8-0.4-0.8s0.3-0.9,0.8-0.9c0.6,0,1.9-1.5,2.2-2.1s0.9-1.1,1-1.2s0.5-1.5,0.6-2.1s-0.3-1.5-0.4-1.8c0-0.3-0.5-1-0.6-1.2
		s-0.2-1-0.2-1.2c0.1-0.1,0.6-0.3,0.6-0.4c0.1-0.1,0.6-0.8,0.6-1c0-0.3,0.4,0.3,0.6,0.6c0.3,0.2,0.5,1.7,0.9,1.8
		c0.3,0.2,1.6-1.5,1.5-2.6c-0.2-1.1,0.4-2.5,0.7-2.6c0.2-0.1,0.9-1,1.3-1.6c-2.9-8.4-7.7-15.9-13.8-21.9h-0.2
		c-0.5-0.1-0.5-0.1-0.5-0.1c-0.8-0.2-1.3-1-1.1-1.2c0-0.1,0-0.2,0-0.4c-0.4-0.4-0.9-0.8-1.4-1.2c-0.4,0-0.8,0-1,0
		c-0.5,0-1.5-0.4-1.7-0.6s-0.8,0.2-0.9,0.5c0,0.3-1.1,0.5-1.2,0.8c-0.1,0.3-0.7,0.3-0.8,0.1s-1.1,0.4-1.6,0.4
		c-0.5,0.1-1.4,0.5-1.7,0.6c-0.2,0.1-0.8,0.6-0.9,0.9c-0.1,0.2-0.7,0.6-0.9,0.7s-0.2,1,0.1,1.2c0.3,0.1-0.5-0.1-0.8-0.3
		s-0.7,0.4-0.8,0.6s-0.4-0.1-0.4-0.4s-0.8-0.5-1-0.3c-0.1,0.2-0.7-0.1-0.9-0.2s-1.3,1-1.7,1.4s-2.3,0.7-2.6,0.6
		c-0.4-0.1-0.7,0.8-0.4,0.9s-0.8,0-1.3,0c-0.6,0.1-2.3,0.7-2.7,1s-0.7-0.1-0.7-0.3s-0.6-0.4-0.8-0.5s-0.6,1.3-0.9,1.5
		c-0.3,0.3-0.7-1-1.5-1.3c-0.8-0.2-2-1-2.4-1.1c-0.3-0.1-1.1-0.8-1.3-1c-0.2-0.2-1.2-0.4-1.5-0.4c-0.3,0-1.4,0.6-1.6,0.8
		c-0.3,0.2-0.7,0.2-0.8,0.3s-1.3,1.2-1.8,1.6s-1.3,1.9-1.5,2.3c-0.3,0.4-0.6,0.4-0.8,0.5c-0.2,0-0.3,0.4-0.3,0.6s-1.4,0.9-1.5,1.5
		s0.1,2,0.1,2.5s0.5,1.5,0.9,1.5s0.2,0.9,0.1,1.1c-0.1,0.2,0.2,0.5,0.2,0.7s-1,0.5-1.2,0.6c-0.3,0.1-0.8,0.8-0.8,1
		c-0.1,0.2-1,0.4-1.3,0.7c0.1-0.2,0.2-0.5,0.3-0.7c0.2-0.3-0.1-0.9-0.2-1c-0.1-0.1-0.2-1.8-0.4-2.1c-0.2-0.4-0.8-0.9-0.9-1.1
		c-0.1-0.1,0.1-0.5,0.2-0.7c0.1-0.2-0.8-0.3-1-0.1c-0.2,0.1-0.4,1.8-0.5,2.2c-0.1,0.4,0.4,1.1,0.6,1.2c0.1,0,0.1,0.8-0.2,0.9
		c-0.3,0-0.6,1.2-0.4,1.5c0.2,0.3-0.2,0.8-0.4,0.9s1.1,0.1,1.7,0c0.6,0,1.1,0.3,1,0.3c-0.1,0.1-1.1,0.2-1.3,0.5s-0.9,0.8-1.1,1
		c-0.1,0.2,0.2,0.6,0.6,0.6c0.3,0,0.7,1.1,0.9,1.3c0.2,0.2,0.2,0.8,0,0.9c-0.1,0.2-1.6-0.1-2.1,0c-0.6,0.1-1.3,1.3-1.3,1.8
		c-0.1,0.5,0.1,1.7,0.2,2.1c0.1,0.3,1.2,0.6,1.5,0.7c0.2,0.2,1.4,0,1.6,0.1c0.2,0.1,1-1.1,1.1-1.7s1.3-1.6,1.6-2
		c0.2-0.4,1.5-0.3,1.8-0.6c0.3-0.2,0.1,1,0.3,1.6c0.2,0.6,1.4,0.6,1.2,0c-0.2-0.6,0.1-0.9,0.2-0.7c0.1,0.2,1.2,0.7,1.5,1
		c0.2,0.3,0.2,1.1-0.1,1.1s-0.3,0.8,0,0.9s0.6-0.9,0.9-1.1c0.3-0.1,0.5-0.8,0.4-0.8s0.2-0.6,0.4-0.4c0.2,0.2-0.6-1.2-1.1-1.7
		s-0.1-0.3,0.8,0.5c0,0,0,0,0.6,0.9c0.1,0.2,0.3,0.7,0.4,0.8c0.1,0.3,0.1,0.3,0.1,0.3c0.1,0.3,0.2,1.2,0.2,1.4s0.5,0.7,0.8,0.7
		c0.3,0,0.5,0.1,0.5,0.2c-0.1,0,0.2,0.6,0.5,0.6c0.3,0,0.4-0.8,0.1-0.8s-0.3-1.2-0.3-1.7s0.2-0.9,0.3-0.9s0,1,0,1.3
		c0,0.2,0.1,0.7,0.3,1c0,0,0,0,0.3,0.2c0.7,0.5,0.7,0.5,0.7,0.5c1-0.3,2.4-0.1,2.3,0.1c-0.1,0.2,0.8,0.3,0.8-0.1
		c0-0.3,0.1,0,0.1,0.2s-0.7,1.1-0.8,1.6c-0.1,0.4-2.5,0.1-3.5,0.1c-1-0.1-2.5,0.3-2.6,0.6s-1.7-0.7-2.4-1c-0.7-0.3-1.3-1.4-1.4-1.6
		C136,180.3,136.2,179.9,136.2,179.7z"/>
	<path class="st13" d="M187.5,197.4c0.1,0.2,0.8-0.4,1.3-0.5s0.7-1.3,0.4-1.3c-0.3-0.1-0.8-1-1-1.1c-0.3-0.1-0.7,0.4-0.7,0.8
		s-0.8,0.5-1,0.8s-0.2,0.5,0,0.5C186.6,196.5,187.4,197.2,187.5,197.4z"/>
	<path class="st13" d="M188.2,202.6c0.3-0.1,0-1.1-0.7-1.2s-2.5,1.4-2.1,2.2s0.7,0.8,0.9,0.6s1.3,0.1,1.6,0.2s0.3-0.1,0-0.4
		C187.5,203.7,187.8,202.7,188.2,202.6z"/>
	<path class="st13" d="M185.1,201.3c0-0.4,0.1-1.6,0.2-1.8c0.1-0.2-0.6-0.9-0.9-1.1c-0.3-0.1-1.4,2.4-2.2,2.8s-1,2-0.8,2.3
		s1.8,0.5,2.1,0.8s0.6,0,0.8-0.1c0.2,0,0.1-0.2,0-0.2s0.6-0.7,0.6-1.2C184.9,202.4,185,201.7,185.1,201.3z"/>
	<path class="st13" d="M185.2,206.4c-0.3-0.1-3.2-0.7-4-0.9c-0.9-0.2-1.8,0.1-1.9,0.2c-0.1,0.2,3.3,0.4,4.4,0.6
		C184.8,206.4,185.5,206.5,185.2,206.4z"/>
	<path class="st13" d="M183.7,189.3c0.2-0.2-0.2-1-0.4-0.8s0,0.7,0,0.9C183.4,189.5,183.6,189.5,183.7,189.3z"/>
	<path class="st13" d="M186.1,191.9c0.1-0.2-0.1-0.4-0.5-0.5s-0.3,0.9-0.2,1C185.6,192.5,186,192.1,186.1,191.9z"/>
	<path class="st13" d="M192.3,201.6c-0.9-0.3-3.1-0.3-3,0.5C190.2,202.4,192.2,202.3,192.3,201.6z"/>
	<path class="st13" d="M189.4,184.4c0.3,0.2,0.9-0.7,1.2-0.9s1-0.3,1.1-0.3c0.1,0.1,0.7-0.1,1.2-0.4c0.1,0,0.2-0.2,0.3-0.4
		c-0.1-0.7-0.3-1.3-0.5-2c-0.3,0.2-0.6,0.4-0.8,0.6c-0.3,0.3-1.7,1.1-2.1,1.4c-0.3,0.2-0.5,0.7-0.4,0.9h-0.1
		C189.2,183.3,189.2,184.3,189.4,184.4z"/>
	<path class="st13" d="M178.2,204c-0.2-0.6-1-1.6-1.7-2.2c0,0,0,0-0.3-0.5s-0.3-0.5-0.3-0.5c-0.3-0.6-1-1.1-1.1-1.2
		c-0.1-0.2-0.3,0.5-0.6,0.3c0.1,0.1,0.4,0.3,0.8,0.7c0.7,0.6,2.2,4.6,2.5,4.9C177.9,205.7,178.4,204.5,178.2,204z"/>
	<path class="st13" d="M168.2,198.4c0.1-0.1-0.1-0.8-0.3-0.9s-0.4,0-0.6,0.2C167.1,198,168.1,198.6,168.2,198.4z"/>
	<path class="st13" d="M150.7,215.8c0.1,0.4,1.1,0.7,1.4,0.6c0.3-0.1,1.2-1.2,1.3-1.5s0.2-1,0.2-1.2s0.1-0.5,0.3-0.6
		c0.1,0,0.3-0.4,0.4-0.8c0.1-0.4-0.6-2.4-0.7-2.7c0-0.3-0.6,0.2-0.7,0.5c-0.1,0.4-1.5,1.1-1.8,1.4s-0.6,1.3-0.5,1.5
		s-0.1,0.9-0.3,1.1C150.2,214.2,150.6,215.5,150.7,215.8z"/>
	<path class="st13" d="M109.3,232.9c0.2,0,0.4,0,0.6,0C109.9,232.3,109.2,232.4,109.3,232.9z"/>
	<path class="st13" d="M108.1,148.9c-0.4,0.1-1.5,0.2-1.8,0.5c-0.2,0.2,0.3,0.4,0.4,0.6c0.1,0.2,0.4-0.1,0.7,0s1.2,0.2,1.4,0.3
		c0.2,0.1-0.8,0.3-1.3,0.3s-0.4,0.9,0,1.1c0.4,0.1,1.4,0.3,1.5,0.1s1.2,0.2,1.7,0.2c0.5,0.1,0.9,1.2,1,1.5c0.2,0.3,0.2,1.2,0.1,1.4
		c0,0.3,0.9,0.7,1,0.6c0.2-0.2,0.1,0.4-0.2,0.4c-0.4,0-0.1,1,0.3,1.1s0.1,0.8-0.1,0.9c-0.3,0.2-0.1,0.8-0.4,1s0.9,2.2,0.9,3.2
		s0.7,1.9,0.9,1.9c0.3,0,1.1,0.2,1.3,0.4c0.1,0.2,0.5-0.2,0.7-0.3c0.2-0.2,0.5-0.7,0.8-1.1s0.9-2.5,1-2.7s1.1-0.1,1.3-0.2
		s0.9-0.6,1.1-0.8c0.2-0.1,1.6-0.7,2-1s1-1.4,1.4-1.7c0.3-0.3-0.2-0.2-0.5-0.4c-0.4-0.2-0.2-0.5-0.1-0.6s1.3,0.2,1.7,0.3
		c0.4,0.2,1.2-0.4,0.9-0.6s-0.1-0.2,0-0.1s0.3-0.7,0.1-0.8c-0.2-0.1,1.2-1.1,0.9-2c-0.2-0.9,0.4-1.8,0.7-1.8c0.4,0,0.3-1-0.2-1.1
		c-0.4-0.1,0-0.2,0.1-0.3c0.2-0.1,0.4-1,0.3-1.2s0.7-0.4,0.8-0.6s1-0.6,1.3-0.7c0.3-0.1,0.5-0.8,0.1-0.8c-0.3,0-1.2-0.1-1.3-0.3
		c-0.1-0.1-1.4-0.3-1.8-0.1c-0.4,0.1-0.1-0.9,0.4-1s0.1-0.8-0.5-0.8s-1.9-0.2-2.2-0.1s-0.9-0.2-1.2-0.2c-0.2,0-1.9,0.5-2.6,0.4
		c-0.8,0-2.7,0-3.1,0.2c-0.4,0.1-0.7,0.9-0.6,1.1c0.1,0.3-1.8,0.3-2.4,0.3s-3.8,0.6-4.6,1.1c-0.8,0.4-1.5,1.5-1.2,1.6
		C109.3,148.1,108.5,148.7,108.1,148.9z"/>
	<path class="st13" d="M134.8,147.1c-0.5,0.3-0.7,1.4-0.4,1.5c0.2,0.1,0.4,1,0.4,1.1c0,0.2,1,0,1.3-0.2s0.2,0.9,0,1.2
		c-0.3,0.3,0.1,0.9,0.4,0.9c0.3,0,0.7,0.8,1,0.8c0.3,0,0.8-1.3,0.9-1.8s1.1-0.1,1.5,0.1c0.4,0.1,0.6-1.8,0.1-2.1s-1.1-0.1-1.3-0.4
		c-0.2-0.2-0.5-0.4-0.8-0.5c-0.2,0-0.4-1.2-0.8-1.3c-0.4-0.2-1.2,0.3-1.1,0.6C136.1,147.4,135.3,146.7,134.8,147.1z"/>
	<path class="st13" d="M143.3,144.9c0.2-0.1-2.8-0.5-3.9-0.5c-1.1,0-2.1,0.1-2.1,0.2s2.6,0.7,3.6,0.8S143,145.1,143.3,144.9z"/>
	<path class="st13" d="M126.9,171.4c0.2-0.1,0.3-0.4,0.3-0.8s-0.3-2.1-0.4-2.1s-0.3,1.3-0.4,1.2s-0.2,1-0.2,1.5
		C126.3,171.5,126.8,171.5,126.9,171.4z"/>
	<path class="st13" d="M127.5,161c0.1,0.3,0.5,0.5,0.9,0.5c0.4-0.1,1.2-0.5,1.4-0.5c0.3,0,0.6-1.4,0.4-1.7c-0.2-0.3-1.5-0.3-1.8-0.3
		c-0.3,0-1.3-0.3-1.5-0.5s-0.3,0.8-0.6,0.9s0.1,0.3,0.3,0.2c0.1-0.1,0,0.5-0.1,0.7C126.4,160.5,127.4,160.7,127.5,161z"/>
	<path class="st13" d="M154.8,152.7c0.4-0.4,2.2-1,2.4-1.4s-0.1-0.8-0.3-0.8s-0.4,0.2-0.4,0.3s-2.1,0.5-2.7,0.8
		c-0.6,0.3-1.4,0.8-1.6,1c-0.3,0.3-0.7,2.2-0.8,2.5c-0.2,0.2,0.7,1,1,1.3c0.4,0.2,0.9,0.1,1,0.1s-0.2-1.4-0.4-1.9
		C152.8,154,154.4,153.1,154.8,152.7z"/>
	<path class="st13" d="M152.3,147.2c0.4,0.5,0.6-0.2,1-0.1C153.3,146.1,152.2,146.4,152.3,147.2z"/>
	<path class="st13" d="M167,146.4c-0.9,0-1.7,0.2-1.7,0.4s2.1,0.3,2.8,0.3C168.7,147,167.9,146.4,167,146.4z"/>
	<path class="st13" d="M101.4,160.8c0.5,0.2,0.9,0.2,0.8,0.1c-0.1-0.1-1.6-0.4-1.8-0.5s-0.9,0.2-1.1,0.3s0,0.6,0.4,0.7
		C100.2,161.5,100.9,160.6,101.4,160.8z"/>
	<path class="st13" d="M103.9,191.4c-0.2,0-0.6,0.3-0.6,0.4s0.6,0.1,0.7-0.1C104.1,191.6,104,191.4,103.9,191.4z"/>
	<path class="st13" d="M95.3,190.3c0.2-0.1,1.4,0.2,1.6,0.4c0.2,0.3,0.7,0.5,1.1,0.4c0.3-0.1,0.2,0.5,0.3,0.7s0.9,0.4,1.1,0.5
		s0.6-0.3,0.9-0.2c0.3,0-0.1-1.2-0.7-1.2s-1-0.5-1.1-0.6s-0.8-0.5-1-0.6c-0.2-0.2-1.6-0.3-2.1-0.3s-1,0.5-1.1,0.7
		S95,190.4,95.3,190.3z"/>
	<path class="st13" d="M98,191.7c0.1,0,0.1-0.1,0-0.2c-0.2-0.1-0.7,0.1-0.7,0.2C97.3,191.8,97.9,191.7,98,191.7z"/>
	<path class="st13" d="M97.6,188.5c-0.2-0.1-0.3,0.2-0.3,0.3s0.1,0.2,0.2,0.2C97.6,189,97.7,188.5,97.6,188.5z"/>
	<path class="st13" d="M99.8,188.7c-0.1-0.1-0.3-0.2-0.4-0.2s-0.1,0.2-0.1,0.4C99.3,189.1,99.8,188.8,99.8,188.7z"/>
	<path class="st13" d="M101,189.3c0.2-0.1,0.3-0.4,0.1-0.4c-0.1,0-0.4-0.4-0.6-0.5s-0.3,0.3-0.3,0.4s0.1,0.2,0.2,0.2
		C100.6,189,100.8,189.4,101,189.3z"/>
	<path class="st13" d="M191.6,204.3c0.2-0.1,1.3,0.5,2.2,1.2c0.2-1,0.3-2,0.5-3c-0.3,0.2-0.6,0.4-0.8,0.5s-1.3,0.3-1.5,0
		c-0.1-0.3-0.4,0.5-0.6,0.7C191.2,203.8,191.3,204.5,191.6,204.3z"/>
	<path class="st9" d="M95.8,158.1c0-0.1-0.3-0.2-0.5-0.2c-0.3,0.3-0.5,0.6-0.8,0.9c-0.2,0.3-0.5,0.6-0.7,0.9c-0.3,0.3-0.5,0.7-0.8,1
		c-0.2,0.3-0.4,0.6-0.7,0.9c-0.3,0.5-0.6,0.9-1,1.4c-0.3,0.4-0.6,0.9-0.9,1.4c-0.2,0.4-0.5,0.8-0.7,1.2c-0.2,0.3-0.3,0.6-0.5,0.8
		c-0.2,0.4-0.5,0.8-0.7,1.3c-0.1,0.2-0.3,0.5-0.4,0.7c-0.5,1-1,2-1.5,3v0.1c-0.2,0.5-0.4,1-0.6,1.5c-0.1,0.2-0.2,0.4-0.2,0.6
		c-0.2,0.5-0.4,1.1-0.6,1.6l-0.1,0.3c-0.6,1.8-1.2,3.6-1.6,5.5c0,0.1-0.1,0.2-0.1,0.4c-0.5,1.9-0.8,3.9-1,5.9l0,0
		c0.3,0.3,0.6,0.7,0.7,0.9c0.2,0.5,1,0.8,1.2,0.9s0.2-0.9,0.1-1.2s0.2-0.4,0.2-0.2s0.8,1.1,1.1,1.5c0.3,0.3,0.6,2.5,0.8,2.9
		c0.3,0.5,2.8,1.4,3.6,1.6s1.8,1.1,2,1.3c0.2,0.3,1.2,0.4,1.5,0.5c0.2,0.1,0.8,0.8,1,1s0.4,0.6,0.4,0.7s1.4,0.6,1.8,1
		c0.3,0.4,0.9,0.3,1,0.1s0.4,0.7,0.5,1.1c0.1,0.3,0.2,1.1,0.1,1.2c-0.1,0.1-0.3,1.5-0.6,1.8c-0.2,0.3-0.8,2.3-0.6,2.7
		c0.1,0.4,0.8,1.2,1.1,1.4c0.3,0.1,0.2,0.6-0.1,0.6c-0.2,0-0.1,2,0.4,2.3s1,1.2,0.9,1.3c-0.1,0.2,1,1.2,1.4,1.5
		c0.4,0.4,1.2,2,1.4,2.6s0.1,1.5,0,1.7s0.2,0.7,0.2,0.9s-0.4,1.9-0.2,2.5c0.1,0.7-0.8,2.7-0.8,3.8c0,1,0.5,2.4,0.7,2.3
		s0.3,0.9-0.1,1.1c-0.3,0.1-0.7,0.9-0.5,1c0.2,0,0,0.9,0,1.2s0.3,2.5,0.4,3s0.8,1.8,1,2.3c0.2,0.4,0.3,1.3,0.4,1.4
		c0.1,0.1,0.1,0.3,0.2,0.3c0,0,0.6,0.2,0.8,0.4c0.2,0.1,1.4,0,1.8,0c0.4-0.1,0-0.4-0.1-0.6c-0.2-0.2-0.3-1.1-0.6-1.2
		c-0.2-0.1-0.3-1.3-0.1-1.6c0.2-0.3,0.9-0.7,1-0.9s0.1-1.3-0.1-1.4c-0.2-0.1,0.1-1.4-0.1-2.1c-0.1-0.6,1.1-1.2,1.2-1.7
		s1.5-1,1.8-1.3s0.6-1.7,0.4-2s0.5-0.6,0.8-0.6s0.6-0.2,0.7-0.2s0.5-0.6,0.7-0.8c0.2-0.1,0.6-1.7,0.9-1.9c0.3-0.3,0.6-1.2,0.6-1.4
		c0-0.3,0.5-1.1,0.7-1.3s1.5-0.8,1.7-0.9s0.6-2.1,0.7-2.8s0.5-1.7,0.5-1.9s0.4-0.4,0.5-0.5s0.4-1,0.6-1.2s0.9-1.1,0.9-1.3
		s0.1-0.7,0.2-1.1c0,0,0,0,0-0.5c0-0.8,0-0.8,0-0.8c-0.2-0.6-0.9-1.4-1.1-1.2s-1-0.5-1.4-0.7c-0.4-0.1-1.4-0.3-1.7-0.3
		s-1.1-0.7-1.5-0.8s-1.4-0.3-1.6-0.4c-0.2-0.1-0.4-1.6-1.3-2.1c-0.8-0.5-2.3-1.6-2.4-2c-0.2-0.4-1.7-1.3-2.2-1.5
		c-0.5-0.3-1.2-0.3-1.3-0.2c-0.1,0.1-0.7-0.8-1-1.1s-1.3-0.5-1.3-0.2c0,0.2-0.7,0.1-0.8-0.1s-0.6,0.1-0.9,0.2
		c-0.2,0.1-1,1.2-1.4,1.5s-0.8-0.3-1-0.4s-1.1,0.2-1.4,0.3c-0.2,0.2-0.8-1.2-0.7-1.9c0.1-0.6-0.6-1.9-1.2-2c-0.6,0-0.7-1.4-0.6-1.9
		s-1-0.8-1.3-0.8s-1,0.7-1.1,1s-2.7-0.5-2.4-2s1.5-3,1.8-3.2s1.9-0.3,2.3-0.1s0.7,0,0.8-0.1s1.4,0,1.8,0.2s1,1.7,1.4,1.9
		s0.6-1,0.6-1.3c0.1-0.3-0.2-1-0.3-1.2s0.7-2,1.3-2.3s1.3-1.3,1.2-1.5s0.5-0.3,0.6-0.4s0-1.6,0.2-1.9s1.4-1,1.8-1.2s0.6-1.1,0.5-1.2
		c-0.1-0.2,1-1.1,1.5-1.3c0.6-0.2,1.1,0.3,0.9,0.4c0.1-0.1,0.9-0.5,1.2-0.7c0.4-0.3,0-0.9-0.2-1.1s-0.1-1,0.2-1.1s0.6-0.8,0.5-0.9
		c-0.1-0.2,1.2,0.1,1.8-0.2c0.5-0.4,0.1,0.9-0.2,1.4c-0.4,0.5,0.3,1,0.5,0.9s0.5,0.3,0.5,0.4s0.6-0.1,0.9,0s0.5-0.4,0.6-0.7
		c0-0.3-0.8-0.8-0.9-1.2c-0.1-0.3-0.2-2.2-0.2-2.6s-0.6-1-0.7-0.9c-0.2,0.1-0.5-1-0.8-1.3c-0.3-0.2-0.3-0.8-0.3-1s-0.9-1.2-1.2-1.6
		c-0.2-0.5-0.6-0.4-0.6-0.2s-0.7,0.2-1,0.2s-0.5-1.1-0.5-1.4c0-0.4-1.2-0.5-1.4-0.8s-1-0.2-1.1-0.4s-0.8-0.4-1-0.3
		c-0.1,0.1-0.1,2.9-0.2,3.6c-0.1,0.8-0.8,1.4-1,1.4s-0.1,0.5,0.1,0.5c0.2-0.1-0.5,0.8-0.5,1.4c-0.1,0.6-0.7,0-0.8-0.5
		s-0.7-1.2-0.8-1s-0.5-0.2-0.7-0.1s-1.3-0.6-1.7-0.9c-0.4-0.2-0.7-1.6-0.9-1.7c-0.3-0.1,0-0.3,0-0.5s0.9-1,1.1-1.3
		c0.3-0.3,1.2-1.5,1.6-1.8s0.7-1,0.6-1.1s1.6-0.6,2.1-0.8s0.9-1.4,0.9-1.7c0.1-0.4-0.3-1-0.5-1.1s0.6-0.1,0.9,0s1.1-0.2,1.5-0.1
		c0.3,0.2,1,0.6,1.5,0.9c0,0,0,0-0.1,0.9c-0.2,1.5-0.2,1.5-0.2,1.5c-1.3,0.5-1.7,1.5-1.2,1.4c0.5,0,2.6,0.9,3.2,1.3
		c0.6,0.4,0.8-0.6,1-0.9s0.1-1.3,0-1.5s0.7-0.1,0.9,0.1s0.5-0.2,0.7-0.3s0.3-0.9,0.4-1.1c0.1-0.2-0.4-0.3-0.4-0.6
		c0-0.2-1-0.6-1.3-0.8c-0.3-0.1-0.4-0.8-0.2-0.9c0.1-0.1-0.1-0.9-0.3-1.2c-0.2-0.3-1.1-0.5-1.5-0.5c-0.3,0-0.7-0.8-0.9-0.9
		s-1.5-0.2-1.8-0.2c-0.3,0.1-0.9-0.9-1.4-0.6s-1.1-0.3-1.3-0.5c-0.2-0.1-1.5,1.2-1.5,2.1s0.5,1.8,0.7,1.8s0,0.9-0.3,1.1
		c-0.2,0.2-0.7-0.2-0.5-0.5c0.2-0.2-0.5-1.2-0.8-1.6c-0.2-0.3-0.8-0.5-1.3-0.7c-0.3,0.3-0.5,0.5-0.8,0.8c0.1,0.3,0.2,0.8,0.1,1.1
		C96.3,158.2,95.8,158.3,95.8,158.1z"/>
	<path class="st9" d="M104.2,148.6c0.3-0.3,1.7-0.7,2.1-0.9c0.3-0.2,1.1-0.9,1.4-0.9c0.3-0.1,0.7-0.7,0.7-0.8
		c-0.1-0.1,1-0.7,1.4-0.9s0.6-0.6,0.5-0.6s-2.3,1.1-4.4,2.1h-0.1c-0.6,0.4-1.2,0.7-1.7,1.1c-0.4,0.3-0.8,0.5-1.1,0.8
		c-0.2,0.1-0.4,0.3-0.6,0.4c-0.5,0.3-0.9,0.7-1.3,1l-0.3,0.2c-0.5,0.4-1,0.8-1.4,1.2c0.6,0,1.6-0.1,2-0.2c0.6-0.1,1.7-0.3,1.8-0.4
		s0.1-0.5-0.1-0.7h0.3C103.6,150.1,104,148.9,104.2,148.6z"/>
	<path class="st9" d="M127.5,176.7c-0.5,0.1-1.2,1.3-1.3,1.8c0,0.5,0.1,1.7,0.2,2.1c0.1,0.4,1.2,0.6,1.4,0.8c0.2,0.2,1.3,0,1.5,0.1
		c0.2,0.1,0.9-1.1,1.1-1.7c0.1-0.6,1.3-1.7,1.5-2.1s1.5-0.3,1.8-0.6c0.3-0.2,0.1,1,0.3,1.6c0.1,0.7,1.3,0.6,1.1,0
		c-0.2-0.6,0.1-0.9,0.2-0.7c0.1,0.2,1.2,0.7,1.4,1.1c0.2,0.3,0.1,1.1-0.1,1.1c-0.3,0-0.3,0.8,0,0.9c0.2,0.1,0.4-0.5,0.7-0.8v-3.2
		l-0.1-0.1c-0.3-0.3-0.3-0.3,0.1-0.1v-19.5c-0.3,0.3-0.5,0.5-0.7,0.7c-0.4,0.4-1.2,2-1.5,2.3c-0.3,0.4-0.6,0.4-0.8,0.5
		c-0.1,0-0.3,0.4-0.3,0.6s-1.3,0.9-1.4,1.5s0.1,2.1,0.1,2.6s0.5,1.5,0.8,1.5c0.4,0,0.2,0.9,0.1,1.1c-0.1,0.2,0.2,0.5,0.2,0.7
		s-0.9,0.5-1.2,0.6s-0.7,0.8-0.8,1s-0.9,0.4-1.2,0.7c0.1-0.2,0.2-0.5,0.2-0.7c0.2-0.3-0.1-0.9-0.2-1s-0.2-1.8-0.4-2.1
		c-0.2-0.4-0.8-1-0.9-1.1s0.1-0.6,0.2-0.7c0.1-0.2-0.7-0.3-0.9-0.2c-0.2,0.1-0.3,1.8-0.4,2.2s0.4,1.1,0.5,1.2c0.1,0,0.1,0.8-0.2,0.9
		c-0.3,0-0.5,1.2-0.4,1.5c0.1,0.3-0.2,0.8-0.4,0.9s1.1,0.1,1.7,0c0.6,0,1,0.3,1,0.3c-0.1,0.1-1.1,0.2-1.3,0.5s-0.9,0.8-1,1
		c-0.1,0.2,0.2,0.6,0.5,0.6s0.6,1.1,0.9,1.3c0.2,0.2,0.1,0.8,0,0.9C129.5,176.8,128.1,176.5,127.5,176.7z"/>
	<path class="st9" d="M137.1,180.6c-0.1-0.2-1.8-0.3-2.4-0.1c-0.5,0.2-3.2,0.5-3.8,0.7c-0.6,0.3-1.6,0-1.9-0.1c-0.3,0-1,0.8-1.4,0.9
		c-0.4,0.2-0.8,1.3-1,2.6c0,0,0,0-0.5,0.9c-0.3,0.6-0.3,0.6-0.3,0.6c-0.9,0.6-1.8,2.8-2.1,3.2c-0.3,0.4-0.5,3.5-0.5,4.5
		s0.9,3.2,1.2,3.8c0.3,0.6,1.9,1.9,2.4,2.3c0.5,0.3,2.3,0.4,2.9,0.4c0.6,0,1.2-0.5,1.5-1.2c0,0,0,0,0.8,0.1c0.4,0,0.4,0,0.4,0
		c0,0.5,1.3,0.8,1.6,1c0.3,0.2,1.1,0,1.4,0c0.2-0.1,0.5,2,0.3,2.7c-0.2,0.6,0.4,2.8,0.6,3.4c0.2,0.6,1,2.4,1,3
		c0.1,0.6-0.5,2.7-0.5,3.5c-0.1,0.7,1,2.8,1.2,3.5c0.3,0.7,0.5,2.2,0.5,2.6c0,0.2,0.3,0.8,0.6,1.5v-37.2c-0.3-0.1-0.5-0.2-0.7-0.3
		c-0.8-0.3-1.4-1.4-1.5-1.6C136.9,181.2,137.2,180.9,137.1,180.6z"/>
	<path class="st9" d="M109.3,232.9c0.2,0,0.4,0,0.6,0C109.9,232.3,109.2,232.4,109.3,232.9z"/>
	<path class="st9" d="M108.1,148.9c-0.4,0.1-1.5,0.2-1.8,0.5c-0.2,0.2,0.3,0.4,0.4,0.6c0.1,0.2,0.4-0.1,0.7,0s1.2,0.2,1.4,0.3
		c0.2,0.1-0.8,0.3-1.3,0.3s-0.4,0.9,0,1.1c0.4,0.1,1.4,0.3,1.5,0.1s1.2,0.2,1.7,0.2c0.5,0.1,0.9,1.2,1,1.5c0.2,0.3,0.2,1.2,0.1,1.4
		c0,0.3,0.9,0.7,1,0.6c0.2-0.2,0.1,0.4-0.2,0.4c-0.4,0-0.1,1,0.3,1.1s0.1,0.8-0.1,0.9c-0.3,0.2-0.1,0.8-0.4,1s0.9,2.2,0.9,3.2
		s0.7,1.9,0.9,1.9c0.3,0,1.1,0.2,1.3,0.4c0.1,0.2,0.5-0.2,0.7-0.3c0.2-0.2,0.5-0.7,0.8-1.1s0.9-2.5,1-2.7s1.1-0.1,1.3-0.2
		s0.9-0.6,1.1-0.8c0.2-0.1,1.6-0.7,2-1s1-1.4,1.4-1.7c0.3-0.3-0.2-0.2-0.5-0.4c-0.4-0.2-0.2-0.5-0.1-0.6s1.3,0.2,1.7,0.3
		c0.4,0.2,1.2-0.4,0.9-0.6s-0.1-0.2,0-0.1s0.3-0.7,0.1-0.8c-0.2-0.1,1.2-1.1,0.9-2c-0.2-0.9,0.4-1.8,0.7-1.8c0.4,0,0.3-1-0.2-1.1
		c-0.4-0.1,0-0.2,0.1-0.3c0.2-0.1,0.4-1,0.3-1.2s0.7-0.4,0.8-0.6s1-0.6,1.3-0.7c0.3-0.1,0.5-0.8,0.1-0.8c-0.3,0-1.2-0.1-1.3-0.3
		c-0.1-0.1-1.4-0.3-1.8-0.1c-0.4,0.1-0.1-0.9,0.4-1s0.1-0.8-0.5-0.8s-1.9-0.2-2.2-0.1s-0.9-0.2-1.2-0.2c-0.2,0-1.9,0.5-2.6,0.4
		c-0.8,0-2.7,0-3.1,0.2c-0.4,0.1-0.7,0.9-0.6,1.1c0.1,0.3-1.8,0.3-2.4,0.3s-3.8,0.6-4.6,1.1c-0.8,0.4-1.5,1.5-1.2,1.6
		C109.3,148.1,108.5,148.7,108.1,148.9z"/>
	<path class="st9" d="M134.9,147.1c-0.6,0.3-0.7,1.4-0.5,1.5c0.3,0.1,0.5,1,0.5,1.1c0,0.2,1.1,0,1.4-0.2s0.2,0.9,0,1.2
		c-0.3,0.3,0.1,0.9,0.4,0.9c0.3,0,0.7,0.8,1,0.8c0.2,0,0.4-0.3,0.6-0.7v-3.9l0,0c-0.2,0-0.5-1.2-0.9-1.3c-0.4-0.2-1.3,0.3-1.2,0.6
		C136.3,147.4,135.4,146.7,134.9,147.1z"/>
	<path class="st9" d="M126.9,171.4c0.2-0.1,0.3-0.4,0.3-0.8s-0.3-2.1-0.4-2.1s-0.3,1.3-0.4,1.2s-0.2,1-0.2,1.5
		C126.3,171.5,126.8,171.5,126.9,171.4z"/>
	<path class="st9" d="M127.5,161c0.1,0.3,0.5,0.5,0.9,0.5c0.4-0.1,1.2-0.5,1.4-0.5c0.3,0,0.6-1.4,0.4-1.7c-0.2-0.3-1.5-0.3-1.8-0.3
		c-0.3,0-1.3-0.3-1.5-0.5s-0.3,0.8-0.6,0.9s0.1,0.3,0.3,0.2c0.1-0.1,0,0.5-0.1,0.7C126.4,160.5,127.4,160.7,127.5,161z"/>
	<path class="st9" d="M101.4,160.8c0.5,0.2,0.9,0.2,0.8,0.1c-0.1-0.1-1.6-0.4-1.8-0.5s-0.9,0.2-1.1,0.3s0,0.6,0.4,0.7
		C100.2,161.5,100.9,160.6,101.4,160.8z"/>
	<path class="st9" d="M103.9,191.4c-0.2,0-0.6,0.3-0.6,0.4s0.6,0.1,0.7-0.1C104.1,191.6,104,191.4,103.9,191.4z"/>
	<path class="st9" d="M95.3,190.3c0.2-0.1,1.4,0.2,1.6,0.4c0.2,0.3,0.7,0.5,1.1,0.4c0.3-0.1,0.2,0.5,0.3,0.7s0.9,0.4,1.1,0.5
		s0.6-0.3,0.9-0.2c0.3,0-0.1-1.2-0.7-1.2s-1-0.5-1.1-0.6s-0.8-0.5-1-0.6c-0.2-0.2-1.6-0.3-2.1-0.3s-1,0.5-1.1,0.7
		S95,190.4,95.3,190.3z"/>
	<path class="st9" d="M98,191.7c0.1,0,0.1-0.1,0-0.2c-0.2-0.1-0.7,0.1-0.7,0.2C97.3,191.8,97.9,191.7,98,191.7z"/>
	<path class="st9" d="M97.6,188.5c-0.2-0.1-0.3,0.2-0.3,0.3s0.1,0.2,0.2,0.2C97.6,189,97.7,188.5,97.6,188.5z"/>
	<path class="st9" d="M99.8,188.7c-0.1-0.1-0.3-0.2-0.4-0.2s-0.1,0.2-0.1,0.4C99.3,189.1,99.8,188.8,99.8,188.7z"/>
	<path class="st9" d="M101,189.3c0.2-0.1,0.3-0.4,0.1-0.4c-0.1,0-0.4-0.4-0.6-0.5s-0.3,0.3-0.3,0.4s0.1,0.2,0.2,0.2
		C100.6,189,100.8,189.4,101,189.3z"/>
	<path class="st6" d="M206.5,288.4c0.1,0,0.3,0.1,0.4,0.1c0.3,0,0.5-0.1,0.7-0.2c0.3-0.2,0.5-0.6,0.5-1v-13c9.7,3.1,9.7,3.2,9.9,3.2
		c0.7,0,1.2-0.6,1.2-1.2v-74.4c0-0.5-0.3-1-0.9-1.2L161,182h-0.3c-1.1-0.3-2.1-0.5-3.1-0.5c-5,0-8.9,3.7-9.3,8.6
		c0,0.1-0.1,0.2-0.1,0.4v78.2c0,0.5,0.3,1,0.9,1.2L206.5,288.4z"/>
	<path class="st5" d="M217.7,278.4c0.2,0,0.4-0.1,0.6-0.2l-0.4-76.2l-57.1-18.9h-0.1c-1.3-0.5-2.3-0.7-3.3-0.7
		c-3.9,0-6.9,3.2-7.1,7.3c0.1,0.9,0.6,2.8,1.7,3.5c1.3,0.8,3.1,1.4,3.1,1.4l53.4,18.5c0.5,0.2,0.9,0.7,0.9,1.3v61.4
		C217.4,278.4,217.5,278.4,217.7,278.4z"/>
	<path class="st8" d="M212.8,276.8c0.8,0,1.6,0.2,2.5,0.4v-74.1l-55-18.1h-0.1c-1.2-0.4-2.2-0.6-3.2-0.6c-3.7,0-6.6,2.9-6.7,6.6
		c0.1,0.8,0.5,2.5,1.6,3.1c1.3,0.7,3,1.3,3,1.3l51,16.7c0.5,0.2,0.8,0.6,0.8,1.2v67.2C207.9,278.3,210.1,276.8,212.8,276.8z"/>
	<path class="st7" d="M213.8,276.8c0.7,0,1.6,0.2,2.5,0.4v-74l-2.3-0.8c-0.2,0-0.5,0-0.7,0c-3.8,0-6.8,3-7,6.9
		c0.1,0.7,0.4,2.1,1.3,2.9v0.3c0.2,0.2,0.3,0.5,0.3,0.8v67.1C209,278.3,211.2,276.8,213.8,276.8z"/>
	<path class="st3" d="M174.4,260h1.9v-2.5H56.7c-1.9,0-3.4,1.7-3.4,3.8v22.4c0,2.1,1.5,3.8,3.4,3.8h119.6V285h-1.9
		c-0.6,0-1.1-0.6-1.1-1.3v-22.4C173.3,260.5,173.8,260,174.4,260z"/>
	<path class="st4" d="M174.4,260h1.9v-2.5h-62v30h62V285h-1.9c-0.6,0-1.1-0.6-1.1-1.3v-22.4C173.3,260.5,173.8,260,174.4,260z"/>
	<path class="st8" d="M175.3,260.4H56.4c-0.6,0-1.1,0.6-1.1,1.3v22.5c0,0.7,0.5,1.3,1.1,1.3h118.9c-0.6,0-1.1-0.6-1.1-1.3v-22.5
		C174.1,261,174.6,260.4,175.3,260.4z"/>
	<path class="st7" d="M175.3,260.4h-62.9c-0.6,0-1.1,0.6-1.1,1.3v22.5c0,0.7,0.5,1.3,1.1,1.3h62.9c-0.6,0-1.1-0.6-1.1-1.3v-22.5
		C174.1,261,174.6,260.4,175.3,260.4z"/>
	<rect x="56.3" y="281.4" class="st7" width="54" height="0.6"/>
	<rect x="56.3" y="260.4" class="st7" width="54" height="0.6"/>
	<rect x="56.3" y="280.4" class="st7" width="54" height="0.2"/>
	<rect x="56.3" y="274.4" class="st7" width="54" height="0.2"/>
	<rect x="56.3" y="269.4" class="st7" width="54" height="0.2"/>
	<rect x="56.3" y="266.4" class="st7" width="54" height="0.2"/>
	<rect x="56.3" y="278.4" class="st7" width="54" height="0.4"/>
	<rect x="56.3" y="276.4" class="st7" width="54" height="0.6"/>
	<rect x="56.3" y="273.4" class="st7" width="54" height="0.4"/>
	<rect x="56.3" y="263.4" class="st7" width="54" height="0.4"/>
	<rect x="56.3" y="270.4" class="st7" width="54" height="0.4"/>
	<path class="st9" d="M61.4,254.9h-2.1v2.5h133.2c2.1,0,3.8-1.7,3.8-3.8v-13.4c0-2.1-1.7-3.8-3.8-3.8H59.3v2.5h2.1
		c0.7,0,1.3,0.6,1.3,1.3v13.4C62.6,254.4,62.1,254.9,61.4,254.9z"/>
	<path class="st13" d="M61.4,254.9h-2.1v2.5h69v-21h-69v2.5h2.1c0.7,0,1.3,0.6,1.3,1.3v13.4C62.6,254.4,62.1,254.9,61.4,254.9z"/>
	<path class="st7" d="M62.3,254.4H195c0.7,0,1.3-0.6,1.3-1.3v-14.3c0-0.7-0.6-1.3-1.3-1.3H62.3c0.7,0,1.3,0.6,1.3,1.3v14.3
		C63.5,253.8,63,254.4,62.3,254.4z"/>
	<path class="st8" d="M62.3,254.4H133c0.7,0,1.3-0.6,1.3-1.3v-14.3c0-0.7-0.6-1.3-1.3-1.3H62.3c0.7,0,1.3,0.6,1.3,1.3v14.3
		C63.5,253.8,63,254.4,62.3,254.4z"/>
	<path class="st3" d="M70.3,233.9c-0.7,0-1.3,0-2,0c0,0.8,0,1.7,0,2.5c27.1,0,54.2,0,81.2,0c1.9,0,5-1.4,6-3.4
		c2.3-4.4,2.3-9.8,0-14.2c-1.1-2.1-4.1-3.4-6-3.4c-27.1,0-54.2,0-81.2,0c0,0.8,0,1.7,0,2.5c0.7,0,1.3,0,2,0s1.2,0.6,1.2,1.3
		c0.1,4.5,0.1,9,0,13.5C71.5,233.4,71,233.9,70.3,233.9z"/>
	<path class="st7" d="M69.3,233.2c27.1,0.1,54.3,0.2,81.4,0.3c0.7,0,1.6-0.5,1.9-1.2c2.2-4.5,2.2-10,0-14.5
		c-0.3-0.7-1.2-1.2-1.9-1.2c-27.1,0.1-54.3,0.2-81.4,0.3c0.7,0,1.2,0.6,1.2,1.3c0.1,4.6,0.1,9.2,0,13.8
		C70.5,232.6,69.9,233.2,69.3,233.2z"/>
	<polygon class="st6" points="149.3,228.4 138.3,228.4 138.3,241.4 143.8,238 149.3,241.4 	"/>
	<polygon class="st4" points="345.5,188.4 292.9,188.9 274.3,207.8 274.9,286.4 346.3,285.8 	"/>
	<polygon class="st11" points="274.3,206.4 292.3,206.3 292.1,188.4 	"/>
	<polygon class="st3" points="274.3,206.6 274.4,224.4 292.3,206.4 	"/>
	<path class="st3" d="M317.2,229.9l-0.3,0.3L303.4,217c-0.1-0.4-0.5-0.7-1-0.7c-0.4,0-0.8,0.3-1,0.7l-13.9,43.2h-2.3
		c-0.6,0-1,0.5-1,1c0,0.4,0.3,0.8,0.7,0.9l22.7,22.1l38.6-0.3l-0.4-48.8L330,219.7c-0.3-0.4-0.7-0.8-1.2-1.1l-0.2-0.2l0,0
		c-1.2-0.8-2.6-1.3-4.1-1.3h-1.4c-2.8,0-5.4,1.8-6.5,4.5c-0.2,0.5,0.1,1.1,0.6,1.3h0.1l4.7,4.6c-0.9,0.2-1.6,0.4-2,0.5
		C319.1,228.6,318.1,229.2,317.2,229.9z"/>
	<path class="st7" d="M288.5,262.4c0.5,0,1-0.3,1.2-0.9l12.8-40.9l13.5,40.7c0.2,0.6,0.9,1,1.5,0.8s1-0.9,0.8-1.6l-14.6-44.3
		c-0.2-0.5-0.6-0.8-1.2-0.8c-0.5,0-1,0.4-1.2,0.9l-13.9,44.5c-0.2,0.7,0.2,1.3,0.8,1.6C288.2,262.4,288.4,262.4,288.5,262.4z"/>
	<path class="st7" d="M285.3,263.4l5.9-0.1c0.6,0,1.1-0.7,1-1.5c0-0.8-0.5-1.5-1.1-1.5l0,0l-5.9,0.1c-0.6,0-1,0.7-1,1.5
		C284.3,262.8,284.7,263.4,285.3,263.4L285.3,263.4z"/>
	<path class="st7" d="M313.3,263.4l5.9-0.1c0.6,0,1-0.7,1-1.5s-0.5-1.5-1.1-1.5l0,0l-5.9,0.1c-0.6,0-1.1,0.7-1,1.5
		C312.3,262.8,312.7,263.4,313.3,263.4L313.3,263.4z"/>
	<path class="st7" d="M292.5,249.4l18.5-0.2c0.7,0,1.2-0.6,1.2-1.4s-0.6-1.4-1.2-1.4l0,0l-18.5,0.2c-0.7,0-1.2,0.6-1.2,1.4
		S291.8,249.4,292.5,249.4L292.5,249.4z"/>
	<g>
		<path class="st2" d="M320.9,238v1.2V238c1.6,0,2.9-0.3,4.2-1c1.2-0.6,2.1-1.4,2.6-2.4c0.4-0.7,0.9-2.2,1-5.2
			c-1.1,0.3-2.4,0.6-3.9,1c-2.5,0.6-4.1,0.9-5,1.1c-0.8,0.2-1.5,0.6-2.1,1.2c-0.6,0.5-0.8,1.1-0.8,2c0,1,0.4,1.7,1.1,2.4
			C318.7,237.7,319.7,238,320.9,238z"/>
		<path class="st7" d="M320.9,240.4L320.9,240.4c2,0,3.8-0.4,5.4-1.3c1.7-0.9,2.9-2,3.7-3.3c0.9-1.5,1.3-3.8,1.3-6.9v-1.2
			c0-0.4-0.2-0.8-0.6-1s-0.8-0.3-1.2-0.1c-1.2,0.4-2.9,0.9-5.3,1.4c-2.6,0.6-4.2,0.9-5.1,1.2c-1.1,0.3-2.2,0.9-3.1,1.7
			c-1.1,0.9-1.7,2.2-1.7,3.8s0.7,3,1.9,4.1C317.4,239.9,319,240.4,320.9,240.4z M317.7,232.7c0.7-0.6,1.4-1,2.1-1.2
			c0.8-0.2,2.4-0.6,5-1.1c1.6-0.3,2.9-0.7,3.9-1c0,3-0.5,4.5-1,5.2c-0.5,0.9-1.4,1.7-2.6,2.4c-1.3,0.7-2.6,1-4.1,1l-0.1,1.2V238
			c-1.3,0-2.2-0.3-3-1s-1.1-1.4-1.1-2.4C316.8,233.8,317.1,233.1,317.7,232.7z"/>
	</g>
	<path class="st7" d="M317.7,222.3c0.8-2,2.5-3.2,4.5-3.3h1.5l0,0c2.7,0,4.9,2.4,4.9,5.3l0.1,13.9c0,0.7,0.6,1.3,1.3,1.3l0,0
		c0.7,0,1.3-0.6,1.3-1.3l-0.1-13.9c0-4.3-3.4-7.8-7.5-7.8h-0.1h-1.5c-3,0-5.7,1.9-6.8,4.9c-0.3,0.7,0.1,1.4,0.7,1.7
		C316.7,223.2,317.5,222.9,317.7,222.3z"/>
	<g>
		<path class="st2" d="M112.3,301c13.5,0,24.5-11.1,24.5-24.6c0-6.5-2.6-12.7-7.2-17.3c-4.7-4.7-10.8-7.2-17.4-7.2
			s-12.7,2.6-17.3,7.2c-4.6,4.7-7.2,10.8-7.2,17.4c0,6.5,2.6,12.7,7.2,17.3C99.6,298.5,105.8,301,112.3,301z"/>
		<path class="st13" d="M112.3,309.4c18.2,0,33-14.9,32.9-33.1c0-8.8-3.5-17-9.7-23.3c-6.3-6.3-14.6-9.7-23.4-9.7S95,246.8,88.8,253
			c-6.2,6.3-9.7,14.5-9.6,23.3c0,8.8,3.4,17,9.7,23.3l0,0C95.2,306,103.5,309.5,112.3,309.4z M87.7,276.5c0-6.5,2.5-12.7,7.2-17.4
			c4.6-4.7,10.8-7.2,17.3-7.2c6.6,0,12.7,2.5,17.4,7.2c4.6,4.6,7.2,10.8,7.2,17.3c0,13.5-11,24.6-24.5,24.6
			c-6.6,0-12.7-2.5-17.4-7.2C90.3,289.2,87.7,283,87.7,276.5z"/>
	</g>
	<g>
		<path class="st2" d="M111.4,300.4C111.5,300.4,111.5,300.4,111.4,300.4c0.5,0,0.9,0,1.4,0.1"/>
		<path class="st14" d="M108.3,298.9c9.4,0,17.6-5,21.9-12.4h-40c1.2,2.5,2.9,4.7,4.9,6.7c4.4,4.3,10.1,6.8,16.2,7.2
			c-3-0.2-5.9-0.9-8.6-2.1C104.6,298.7,106.4,298.9,108.3,298.9L108.3,298.9z"/>
	</g>
	<g>
		<path class="st15" d="M90.4,287.4h25.9v-2.5h-27C89.6,285.8,90,286.6,90.4,287.4z"/>
		<path class="st15" d="M116.3,257.4h-19c-0.7,0.5-1.3,1.1-2,1.7c-0.2,0.2-0.5,0.5-0.7,0.7h21.7V257.4z"/>
	</g>
	<g>
		<path class="st16" d="M124.6,257.4h-10.3v2.4h12.6c-0.7-0.8-1.4-1.6-2.2-2.3C124.7,257.5,124.7,257.5,124.6,257.4z"/>
		<path class="st16" d="M127.8,257.4c0.7,0.5,1.3,1,1.9,1.6C129.1,258.5,128.4,257.9,127.8,257.4L127.8,257.4z"/>
		<path class="st16" d="M114.3,287.4h14.6c0.5-0.8,1-1.7,1.4-2.5h-16V287.4z"/>
	</g>
	<path class="st17" d="M87.3,275.9c0,0.4,0,0.8,0,1.2h24.4v0.8H87.3c0,0.7,0.1,1.4,0.1,2h24.3v0.5H87.5c0,0.3,0.1,0.7,0.2,1h24.1
		v0.3h-24c0.1,0.4,0.2,0.8,0.3,1.2h23.8v0.8H88.4c0.2,0.6,0.3,1.1,0.5,1.7h24.2c-0.6,0-1.2-0.6-1.2-1.3v-22.5c0-0.7,0.5-1.3,1.2-1.3
		h-19c-0.3,0.3-0.6,0.7-0.9,1.1h18.7v0.8H92.5c-0.4,0.6-0.9,1.2-1.3,1.8h20.7v0.5h-21c-0.5,0.8-0.9,1.6-1.3,2.5h22.3v0.3H89.5
		c-0.3,0.8-0.6,1.6-0.9,2.4h23.3v0.3H88.5c-0.1,0.4-0.2,0.8-0.3,1.2h23.7v0.5H88.1c-0.2,0.8-0.3,1.6-0.4,2.4h24.2v0.5H87.6
		c0,0.3-0.1,0.7-0.1,1h24.4v0.3L87.3,275.9L87.3,275.9z"/>
	<path class="st7" d="M129.3,285.4c1.3-3,2-6.4,2-9.9c0-5.5-1.8-10.8-5.1-15.1h-13.8c-0.6,0-1.1,0.6-1.1,1.3v22.5
		c0,0.7,0.5,1.3,1.1,1.3L129.3,285.4L129.3,285.4z"/>
	<path class="st7" d="M113.3,281.4h-24c0.1,0.2,0.1,0.4,0.2,0.6h23.8V281.4z"/>
	<path class="st7" d="M92.9,260.4c-0.2,0.2-0.4,0.4-0.6,0.6h18v-0.6H92.9z"/>
	<path class="st7" d="M111.3,280.4h-24c0,0.1,0,0.1,0,0.2h24V280.4z"/>
	<path class="st7" d="M87.3,274.4c0,0.1,0,0.1,0,0.2h24v-0.2H87.3z"/>
	<path class="st7" d="M89.3,269.4c0,0.1-0.1,0.1-0.1,0.2h23v-0.2H89.3z"/>
	<path class="st7" d="M90.4,266.4c0,0.1-0.1,0.1-0.1,0.2h23v-0.2H90.4z"/>
	<path class="st7" d="M111.3,278.4h-24c0,0.1,0,0.2,0.1,0.4h23.9V278.4z"/>
	<path class="st7" d="M111.3,276.4h-24c0,0,0,0,0,0.1c0,0,0,0,0,0.1c0,0.2,0,0.3,0,0.5h24V276.4z"/>
	<path class="st7" d="M87.3,273.4c0,0.1,0,0.2-0.1,0.4h24v-0.4H87.3z"/>
	<path class="st7" d="M90.6,263.4c-0.1,0.1-0.2,0.2-0.3,0.4h20v-0.4H90.6z"/>
	<path class="st7" d="M87.4,270.4c0,0.1-0.1,0.2-0.1,0.4h24v-0.4H87.4z"/>
	<path class="st2" d="M121.3,254.4H100c-1.3,0.9-2.6,1.9-3.7,3h28C123.4,256.3,122.4,255.3,121.3,254.4z"/>
	<path class="st17" d="M124.3,253.4c-3.6-2-7.7-3-12-3l0,0c-4.2,0-8.3,1-12,3H122c-1.3-0.9-2.7-1.7-4.2-2.4
		C120.1,251.6,122.2,252.4,124.3,253.4L124.3,253.4z"/>
	<path class="st2" d="M88.1,283.1c0,0.1,0,0.1,0.1,0.2c0-0.2-0.1-0.3-0.1-0.5C88.1,282.9,88.1,283,88.1,283.1z"/>
	<path class="st5" d="M58.5,340l25.4-25.4c3.2-3.2,3.2-8.5,0-11.7l0,0c-3.3-3.2-8.5-3.2-11.8,0l-25.4,25.4c-3.2,3.2-3.2,8.5,0,11.7
		l0,0C50,343.3,55.2,343.2,58.5,340z"/>
	<path class="st6" d="M55,340.5l26.3-26.3c1.3-1.3,1.3-3.4,0-4.7c-1.3-1.3-3.4-1.3-4.7,0l-26.3,26.3c-1.3,1.3-1.3,3.4,0,4.7l0,0
		C51.6,341.8,53.7,341.8,55,340.5z"/>
	<path class="st9" d="M113.4,305.2v4.3c17.1,0,30.9-14.4,30.9-32.1c0-8.5-3.2-16.5-9.1-22.6c-5.8-6.1-13.6-9.4-21.9-9.4h-0.1v4.3
		h0.1c7.1,0,13.9,2.9,18.9,8.1c5.1,5.2,7.9,12.2,7.9,19.6C140.2,292.7,128.2,305.1,113.4,305.2z"/>
	<path class="st18" d="M113.3,300.4L113.3,300.4L113.3,300.4C113.4,300.4,113.4,300.4,113.3,300.4L113.3,300.4h0.2c0,0,0,0,0.1,0
		c10,0,18.6-5.7,22.7-14h-5.7c-4.4,7.4-12.5,12.4-21.8,12.4l0,0c-1.9,0-3.7-0.2-5.5-0.6C106.4,299.6,109.7,300.4,113.3,300.4
		C113.2,300.4,113.2,300.4,113.3,300.4C113.2,300.4,113.2,300.4,113.3,300.4z"/>
	<path class="st2" d="M130.8,259.1L130.8,259.1C130.8,259.1,130.7,259.1,130.8,259.1C130.7,259.1,130.7,259.1,130.8,259.1
		c-0.6-0.7-1.2-1.2-1.8-1.7h-2.8l0.1,0.1c0.7,0.7,1.3,1.5,1.9,2.3h3.2C131.3,259.6,131,259.4,130.8,259.1z"/>
	<path class="st11" d="M134.9,285.4c0.9-2.6,1.4-5.3,1.4-8.2v-0.1c0-6.2-2.3-12.1-6.6-16.7h-3.4c3.4,4.3,5.2,9.6,5.2,15.1
		c0,3.5-0.7,6.8-2,9.9L134.9,285.4L134.9,285.4z"/>
	<path class="st19" d="M127.3,257.4c-1.2-1.1-2.5-2.1-3.8-3h-2.2c1.1,0.9,2.1,1.9,3,3H127.3z"/>
	<path class="st20" d="M117.3,252.4c1.4,0.8,2.7,1.8,3.9,3h2.1C121.4,254.1,119.4,253.1,117.3,252.4z"/>
	<path class="st2" d="M134.8,284.9c0-0.1,0-0.1,0.1-0.2c0-0.1,0-0.1,0.1-0.2C134.9,284.6,134.9,284.8,134.8,284.9z"/>
	<path class="st13" d="M87.6,307.2l5.4-5.5c1.7-1.7,1.7-4.4,0-6l0,0c-1.7-1.7-4.4-1.7-6.1,0l-5.4,5.5c-1.7,1.7-1.7,4.4,0,6l0,0
		C83.2,308.9,86,308.9,87.6,307.2z"/>
	<path class="st9" d="M240.2,137.4c1.1,0,2.1-0.9,2.1-2s-0.9-2-2.1-2h-25.9c-1.1,0-2.1,0.9-2.1,2s0.9,2,2.1,2H240.2z"/>
	<path class="st8" d="M260.3,70.7c0-17.8-14.3-32.2-32-32.2s-32,14.4-32,32.2c0,1,0.7,15.9,12.8,31.6c3.5,4.7,2.9,14.2,2.8,14.2
		c5,0,9.1,0,14.1,0c1.5,0,3,0,4.5,0c5,0,9,0,14,0c0,0-0.6-9.5,2.9-14.2C259.5,86.6,260.3,71.7,260.3,70.7z"/>
	<path class="st7" d="M227.3,116.4v-78c-17.1,0-31,14.4-31,32.2c0,1,0.7,15.9,12.4,31.6c3.4,4.7,2.8,14.2,2.7,14.2
		C216.2,116.4,222.5,116.4,227.3,116.4z"/>
	<path class="st7" d="M252.3,70.4c0-13.8-11.2-25-25-25v2.8c12.2,0,22.2,10,22.2,22.2C249.5,70.4,252.3,70.4,252.3,70.4z"/>
	<polygon class="st13" points="237.6,85.4 232.3,119 235,119.4 240.3,85.9 	"/>
	<polygon class="st2" points="218,85.4 215.3,85.9 220.6,119.4 223.3,119 	"/>
	<path class="st13" d="M219.9,87.4c0.2,0,0.5,1,0.6,1.4c0.4,1.1,0.9,2.6,2,2.6s1.6-1.5,2-2.6c0.1-0.5,0.5-1.4,0.6-1.4
		c0.2,0,0.5,1,0.6,1.4c0.4,1.1,0.9,2.6,2,2.6s1.6-1.5,2-2.6c0.1-0.5,0.5-1.4,0.6-1.4c0.2,0,0.5,1,0.6,1.4c0.4,1.1,0.9,2.6,2,2.6
		s1.6-1.5,2-2.6c0.1-0.5,0.5-1.4,0.6-1.4c0.2,0,0.5,1,0.6,1.4c0.4,1.1,0.9,2.6,2,2.6v-2c-0.2,0-0.5-0.9-0.6-1.4
		c-0.4-1.1-0.9-2.6-2-2.6s-1.6,1.5-2,2.6c-0.1,0.5-0.5,1.4-0.6,1.4c-0.2,0-0.5-0.9-0.6-1.4c-0.4-1.1-0.9-2.6-2-2.6s-1.6,1.5-2,2.6
		c-0.1,0.5-0.5,1.4-0.6,1.4c-0.2,0-0.5-1-0.6-1.4c-0.4-1.1-0.9-2.6-2-2.6s-1.6,1.5-2,2.6c-0.1,0.5-0.5,1.4-0.6,1.4
		c-0.2,0-0.5-1-0.6-1.4c-0.4-1.1-0.9-2.6-2-2.6s-1.6,1.5-2,2.6c-0.1,0.5-0.5,1.4-0.6,1.4v2c1.1,0,1.6-1.5,2-2.6
		C219.4,88.4,219.7,87.4,219.9,87.4z"/>
	<path class="st13" d="M241.2,134.4c1.2,0,2.1-0.9,2.1-2v-16h-33v16c0,1.1,0.9,2,2.1,2H241.2z"/>
	<rect x="205.3" y="112.4" class="st13" width="44" height="10"/>
	<path class="st9" d="M244.6,120.4c0.9,0,1.7-0.9,1.7-2s-0.8-2-1.7-2H210c-0.9,0-1.7,0.9-1.7,2s0.7,2,1.7,2H244.6z"/>
	<rect x="205.3" y="117.4" class="st13" width="44" height="10"/>
	<path class="st9" d="M244.6,126.4c0.9,0,1.7-0.9,1.7-2s-0.8-2-1.7-2H210c-0.9,0-1.7,0.9-1.7,2s0.7,2,1.7,2H244.6z"/>
	<rect x="205.3" y="124.4" class="st13" width="44" height="10"/>
	<path class="st9" d="M244.6,131.4c0.9,0,1.7-0.9,1.7-2s-0.8-2-1.7-2H210c-0.9,0-1.7,0.9-1.7,2s0.7,2,1.7,2H244.6z"/>
	<path class="st7" d="M228.3,24.7V8.3c0-0.4-0.2-0.8-0.5-0.8s-0.5,0.3-0.5,0.8v16.4c0,0.4,0.2,0.8,0.5,0.8
		C228,25.4,228.3,25.1,228.3,24.7z"/>
	<path class="st7" d="M205.5,33.4c0.1,0,0.3,0,0.4-0.1c0.4-0.2,0.5-0.7,0.3-1.1l-8.4-15.3c-0.2-0.4-0.7-0.5-1.1-0.3
		c-0.4,0.2-0.5,0.7-0.3,1.1l8.4,15.3C204.9,33.3,205.2,33.4,205.5,33.4z"/>
	<path class="st7" d="M188,50.3c0.1,0.1,0.3,0.1,0.4,0.1c0.3,0,0.6-0.1,0.7-0.4c0.2-0.4,0.1-0.9-0.3-1.1l-15.3-8.4
		c-0.4-0.2-0.9-0.1-1.1,0.3c-0.2,0.4-0.1,0.9,0.3,1.1L188,50.3z"/>
	<path class="st7" d="M181.5,72.4c0.4,0,0.8-0.2,0.8-0.5s-0.3-0.5-0.8-0.5h-16.4c-0.4,0-0.8,0.2-0.8,0.5s0.4,0.5,0.8,0.5H181.5z"/>
	<path class="st7" d="M173.5,103.3l15.3-8.4c0.4-0.2,0.5-0.7,0.3-1.1s-0.7-0.5-1.1-0.3l-15.3,8.4c-0.4,0.2-0.5,0.7-0.3,1.1
		c0.2,0.3,0.4,0.4,0.7,0.4C173.3,103.4,173.4,103.4,173.5,103.3z"/>
	<path class="st7" d="M197.1,126.4c0.3,0,0.5-0.2,0.7-0.4l8.4-15.3c0.2-0.4,0.1-0.9-0.3-1.1s-0.9-0.1-1.1,0.3l-8.4,15.3
		c-0.2,0.4-0.1,0.9,0.3,1.1C196.8,126.4,196.9,126.4,197.1,126.4z"/>
	<path class="st7" d="M258.5,126.4c0.1,0,0.3,0,0.4-0.1c0.4-0.2,0.5-0.7,0.3-1.1l-8.4-15.3c-0.2-0.4-0.7-0.5-1.1-0.3
		s-0.5,0.7-0.3,1.1l8.4,15.3C257.9,126.3,258.2,126.4,258.5,126.4z"/>
	<path class="st7" d="M281,103.3c0.1,0.1,0.3,0.1,0.4,0.1c0.3,0,0.6-0.1,0.7-0.4c0.2-0.4,0.1-0.9-0.3-1.1l-15.3-8.4
		c-0.4-0.2-0.9-0.1-1.1,0.3s-0.1,0.9,0.3,1.1L281,103.3z"/>
	<path class="st7" d="M288.5,72.4c0.4,0,0.8-0.2,0.8-0.5s-0.3-0.5-0.8-0.5h-16.4c-0.4,0-0.8,0.2-0.8,0.5s0.4,0.5,0.8,0.5H288.5z"/>
	<path class="st7" d="M266.5,50.3l15.3-8.4c0.4-0.2,0.5-0.7,0.3-1.1c-0.2-0.4-0.7-0.5-1.1-0.3l-15.3,8.4c-0.4,0.2-0.5,0.7-0.3,1.1
		c0.2,0.3,0.4,0.4,0.7,0.4C266.3,50.4,266.4,50.4,266.5,50.3z"/>
	<path class="st7" d="M250.1,33.4c0.3,0,0.5-0.2,0.7-0.4l8.4-15.3c0.2-0.4,0.1-0.9-0.3-1.1c-0.4-0.2-0.9-0.1-1.1,0.3l-8.4,15.3
		c-0.2,0.4-0.1,0.9,0.3,1.1C249.8,33.4,249.9,33.4,250.1,33.4z"/>
	<path class="st7" d="M228.3,24.7V8.3c0-0.4-0.2-0.8-0.5-0.8s-0.5,0.3-0.5,0.8v16.4c0,0.4,0.2,0.8,0.5,0.8
		C228,25.4,228.3,25.1,228.3,24.7z"/>
	<polygon class="st7" points="344.3,237.4 329.3,252.5 329.3,315.4 386.3,315.4 386.3,237.4 	"/>
	<polygon class="st12" points="329.3,253.4 345.3,253.4 345.3,237.4 	"/>
	<polygon class="st8" points="329.3,268.4 345.3,252.4 329.3,252.4 	"/>
	<path class="st13" d="M307.2,396.4c4.4,0,8-3.6,8-8v-110c0-4.4-3.6-8-8-8H162.3c-4.4,0-8,3.6-8,8v110c0,4.4,3.6,8,8,8H307.2z"/>
	<path class="st7" d="M164.3,332.4c0-1.7-1.3-3-3-3s-3,1.3-3,3s1.3,3,3,3C162.9,335.4,164.3,334.1,164.3,332.4z"/>
	<rect x="169.3" y="284.4" class="st12" width="130" height="98"/>
	<polygon class="st11" points="169.3,382.4 299.3,284.4 169.3,284.4 	"/>
	<path class="st7" d="M187.8,345.5l-3.7-0.1c-6.1-0.2-11.1,4.3-11.3,10l-0.6,35l14.5-5.3l1.5-39.5
		C188.1,345.6,188,345.6,187.8,345.5z"/>
	<path class="st7" d="M162.9,381.4c4.2,0,7.5-3.3,7.5-7.3v-50.5l14.6-14.1c4.3-4.2,4.3-11,0-15.3l-2.6-2.5l-0.4-0.3l-24.5,23.7
		l-2.3,2.2l0.1,56.7C155.4,378.2,158.7,381.4,162.9,381.4z"/>
	<polygon class="st7" points="171.3,397.6 171.3,379.7 171.3,338.4 133.3,340.9 133.3,365.7 137.8,394.6 161.1,410.4 	"/>
	<path class="st7" d="M152.3,394.4c4.4,0,7.9-3.3,7.9-7.4v-10c-3-1-5.2-3.8-5.2-7l-0.1-50.6l-8.3,7.7l0,0l-2.4,2.3l0.1,57.6
		C144.4,391.1,147.9,394.4,152.3,394.4z"/>
	<polygon class="st7" points="143.2,331.4 135.5,339.2 135.5,339.2 133.3,341.5 133.3,368.4 143.3,378.4 	"/>
	<path class="st7" d="M153.7,396.4c6.9,0,12.6-5.6,12.6-12.4v-20.2c0-6.9-5.6-12.4-12.6-12.4h-7.9c-6.9,0-12.6,5.6-12.6,12.4V384
		c0,6.9,5.6,12.4,12.6,12.4H153.7z"/>
	<path class="st6" d="M256.4,351c2.6-11.7,2.6-23.3,0-35c-15.1-2-30.1-2-45.2,0c-2.6,11.7-2.6,23.3,0,35
		C226.2,352.9,241.3,352.9,256.4,351z"/>
	<path class="st5" d="M256.4,349c1.3-5.5,1.9-11.1,1.9-16.6h-49c0,5.5,0.6,11.1,1.9,16.6C226.2,350.9,241.3,350.9,256.4,349z"/>
	<path class="st7" d="M230.9,340.2l13.6-7.8c0.9-0.5,0.9-1.4,0-1.9l-13.6-7.8c-0.9-0.5-1.7-0.1-1.7,1v15.6
		C229.3,340.3,230,340.7,230.9,340.2z"/>
	<path class="st11" d="M230.9,342.2l13.6-8.6c0.5-0.3,0.7-0.7,0.7-1.1h-16v8.7C229.3,342.3,230,342.8,230.9,342.2z"/>
	<path class="st7" d="M228,384.3h-3.2c-0.1,0-0.3,0-0.4,0v12.1h-0.1v16.1l21.7,21.3c3.1,2.9,7.2,4.7,11.7,4.7h27.6
		c9.4,0,17-7.6,17-17v-42.3c0-3.6-2.9-6.6-6.5-6.6c-3,0-5.5,2-6.3,4.7c-1-0.3-2.1-0.4-3.2-0.5v-4.5c0-3.6-2.9-6.6-6.5-6.6
		s-6.5,2.9-6.5,6.6v4.4H270v-10.4c0-3.6-2.9-6.6-6.5-6.6s-6.5,2.9-6.5,6.6v10.5c-1.1,0-2.1,0.2-3.2,0.4V346c0-3.6-2.9-6.6-6.5-6.6
		s-6.5,2.9-6.5,6.6v47c0,0.2,0,0.5,0,0.7V410l-3-3v-13.1C237.6,388.6,233.3,384.3,228,384.3z"/>
	<path class="st9" d="M346.4,303.4c-2.4,2.4-3.4,5.7-3,8.9l5.7-5.7l5.9,1.6l1.6,5.9l-6.6,6.6c3.8,1.5,8.3,0.8,11.4-2.3
		c3.1-3.1,3.9-7.6,2.4-11.4l23.1-23.1c3.8,1.5,8.3,0.7,11.4-2.4c1.9-1.9,2.9-4.3,3.1-6.8l-4.5,4.5l-7.2-1.9l-1.9-7.2l6.1-6.1
		c-3.6-1.1-7.7-0.2-10.6,2.6c-3.1,3.1-3.9,7.6-2.4,11.4l-23.1,23C354,299.5,349.5,300.3,346.4,303.4z"/>
	<path class="st13" d="M360.9,318.3c3.1-3.1,3.9-7.6,2.4-11.5l23.4-23.2c3.9,1.5,8.4,0.7,11.6-2.4c1.9-1.9,3-4.4,3.1-6.9l-4.5,4.5
		l-7.3-1.9l-0.7-2.5l-34.3,34l1.5,5.5l-6.7,6.7C353.1,322.2,357.7,321.4,360.9,318.3z"/>
	<polygon class="st9" points="356.4,269.3 348.9,264.4 346.3,267.1 351.1,274.6 354.1,275 354.2,274.9 376.8,297.4 379.3,294.9 
		356.7,272.4 356.8,272.3 	"/>
	<polygon class="st13" points="356.7,269.4 349,264.4 347.3,266.2 378.6,297.4 380.3,295.8 357,272.6 357.1,272.5 	"/>
	<path class="st4" d="M377.5,304.7c5.8,5.7,8.1,8,13.9,13.7c0.9,0.9,2.7,1.3,3.9,0.7c2.5-1.3,4.5-3.3,5.7-5.8c0.6-1.2,0.1-3-0.8-3.9
		c-5.8-5.7-8.1-8-13.9-13.7c-0.7-0.6-1.6-0.8-2.4-0.5c0.1-1.1-0.3-2.3-1-3c-0.4-0.4-0.7-0.7-0.9-0.9c-0.9-0.9-1.2-1.2-1.2-1.2
		c-0.3-0.3-0.6-0.6-0.9-0.9c-0.9-0.9-2.4-0.9-3.3,0c-1.9,1.9-3.7,3.8-5.6,5.6c-0.9,0.9-0.9,2.4,0,3.3c0.4,0.4,0.7,0.7,0.9,0.9
		c0.9,0.9,1.2,1.2,1.2,1.2c0.3,0.3,0.6,0.6,0.9,0.9c0.7,0.7,1.9,1.1,3,1C376.6,303,376.8,304,377.5,304.7z"/>
	<path class="st3" d="M400.2,310.6c-5.9-6.1-8.2-8.4-14.1-14.5c-0.7-0.7-1.6-0.9-2.5-0.5c0.1-1.1-0.3-2.5-1-3.2
		c-0.4-0.4-0.7-0.7-0.9-1c-0.9-0.9-1.2-1.3-1.2-1.3c-0.3-0.3-0.6-0.6-0.9-1c-0.9-0.9-2.4-1-3.3,0c-1,1-1.9,2-2.9,3l25.2,26.3
		c1-1.1,1.9-2.3,2.5-3.6C401.6,313.5,401.1,311.6,400.2,310.6z"/>
	<path class="st3" d="M394.9,317.1c0.4-0.4,0.4-1.2,0-1.6l-11.8-11.8c-0.4-0.4-1.2-0.4-1.6,0s-0.4,1.2,0,1.6l11.8,11.8
		C393.8,317.6,394.5,317.6,394.9,317.1z"/>
	<path class="st4" d="M396.9,312.1c0.4-0.4,0.4-1.1,0-1.6l-11.8-11.8c-0.4-0.4-1.2-0.4-1.6,0s-0.4,1.2,0,1.6l11.8,11.8
		C395.8,312.6,396.5,312.6,396.9,312.1z"/>
	<path class="st2" d="M377.1,289.8c0.9-0.9,2.3-0.9,3.2,0l-0.2-0.2c-0.2-0.2-0.2-0.2-0.5-0.5c-0.9-0.9-2.3-0.9-3.2,0
		c-1.8,1.8-3.6,3.7-5.5,5.5c-0.9,0.9-0.9,2.3,0,3.2c0.4,0.4,0.3,0.3,0.5,0.5l0.2,0.2c-0.9-0.9-0.9-2.3,0-3.2
		C373.4,293.4,375.3,291.6,377.1,289.8z"/>
</g>
</svg>
